<?xml version="1.0" encoding="utf-8"?>
<!-- Generator: Adobe Illustrator 25.1.0, SVG Export Plug-In . SVG Version: 6.00 Build 0)  -->
<svg version="1.1" id="Layer_1" xmlns="http://www.w3.org/2000/svg" xmlns:xlink="http://www.w3.org/1999/xlink" x="0px" y="0px"
	 viewBox="0 0 685.5 189" style="enable-background:new 0 0 685.5 189;" xml:space="preserve">
<style type="text/css">
	.st0{fill:#3F3F3F;}
</style>
<g>
	<path class="st0" d="M180.6,27.6c-0.4,0-0.6,0.2-0.8,0.5C180.3,28.3,180.6,28.1,180.6,27.6c0.4,0.4,0,1.1-1.1,2.3s-1.8,2.2-2.2,3.1
		c-1.1,1.6-2,3.4-2.7,5.3c-0.7,1.9-1.6,3.6-2.7,5.1c0,0.4-0.1,0.5-0.3,0.5c-0.2,0-0.4,0.2-0.6,0.5c0,0.7-0.1,1.3-0.3,1.6
		c-0.6,1.6-1.3,3.2-2.3,4.8s-1.5,3-1.5,4.2c-0.4,0.2-0.5,0.5-0.4,1.1c0.1,0.5-0.1,0.7-0.7,0.5c0,2.9-0.8,5.7-2.5,8.2
		c-0.6,2.4-1.1,5.2-1.5,8.3c-0.5,3.2-0.7,6.5-0.8,9.8c-0.1,3.4,0,6.5,0.3,9.4s0.9,5.3,1.8,7.1c0,2,0.4,3.7,1.2,4.9
		c0.8,1.3,2,2.7,3.4,4.1c0.7-0.6,1.5-1,2.3-1.2c0.8-0.3,1.4-0.9,1.8-1.8c0.6,0,0.9,0.1,1.1,0.3c1.5-1.3,2.8-2.5,4.1-3.6
		c1.3-1.1,2.6-2.3,4.1-3.6c0,0.4-0.1,0.6-0.1,0.6s-0.1,0.1-0.1,0.3c-0.2,0-0.6,0.3-1.1,0.8c0.2,0.4,0.4,0.4,0.7,0.1
		c0.3-0.3,0.4-0.6,0.4-1c0.4,0.4,0.6,0.3,0.8-0.1c0.2-0.4,0-0.7-0.6-0.7c0.7-0.2,1.2-0.8,1.5-1.8c0.3-1,0.9-1.3,1.8-1
		c0.4,0,0.4-0.1,0.1-0.3s-0.2-0.4,0.1-0.6c4.7-5.7,9.4-11.4,14.1-17.1c4.6-5.8,9.1-11.7,13.3-17.9c0.2,0,0.3,0.1,0.3,0.3
		s0.1,0.3,0.3,0.3c1.5-1.5,2.7-3,3.7-4.7c1-1.6,2.3-3.1,4-4.4c0.4-1.5,1.1-2.6,2.3-3.6c1.2-0.9,2.1-2.1,2.6-3.6c1.3-0.5,2.3-1.2,3-2
		s1.5-1.7,2.2-2.7c0.7-1,1.6-1.9,2.5-2.6s2.1-1.3,3.6-1.6c-0.4,0.7-0.4,1-0.1,0.8c0.3-0.2,0.6-0.1,1,0.3c-0.2,0.4-0.4,0.8-0.6,1.4
		c-0.2,0.5-0.5,1-0.8,1.4c0.6,0.2,0.7,0.5,0.6,1c-0.2,0.5-0.5,1-0.8,1.5c-0.4,0.5-0.7,1.1-1.1,1.8c-0.4,0.6-0.5,1.1-0.3,1.5
		c-0.4,0.7-0.7,1.4-1.1,1.9c-0.4,0.5-0.6,1-0.8,1.4c0,0.4,0,0.5,0.1,0.3c0.1-0.2,0.3-0.3,0.7-0.3c-1.3,2-2.6,4-4,6
		c-1.4,2-2.5,3.9-3.4,5.8c0.2,0.4,0.4,0.5,0.6,0.3c0.2-0.2,0.4-0.3,0.6-0.3c-1.3,2-2.5,3.9-3.7,5.6c-1.2,1.7-2.2,3.5-3.1,5.3
		c-0.4,0-0.6,0.1-0.8,0.3c0.6,0.6,0.8,0.5,0.8-0.3h0.6c-0.9,1.6-1.8,3.1-2.7,4.4c-0.9,1.3-1.7,2.9-2.5,4.9c-2.6,3.1-5,6.2-7.2,9.4
		c-2.3,3.2-4.7,6.3-7.2,9.3c-2.6,3-5.3,5.8-8.2,8.3c-2.9,2.6-6.3,4.8-10.1,6.6c0,0.4,0.1,0.6,0.3,0.7c0.2,0.1,0.1,0.3-0.3,0.7
		c-0.2,0-0.3-0.4-0.3-1.1c-2,0.7-4,1.3-6,1.8c-2,0.5-4,0.4-6-0.1c-4.4,0-8-1.1-10.9-3.3c-2.9-2.2-5.7-4.4-8.2-6.6h-1.4
		c0.4-0.9,0.1-1.9-1-2.9c-1-1-1.6-2.1-1.8-3.2c0.4-1.1,0.2-2.1-0.4-3c-0.6-0.9-0.8-1.8-0.4-2.7c0-0.4-0.3-0.6-0.8-0.6
		c0.4-0.7,0.4-1.3,0.1-1.6c-0.3-0.4-0.6-0.8-1-1.4c0.2-0.4,0.3-0.4,0.4-0.1c0.1,0.3,0.2,0.4,0.4,0.4c0.2-0.2,0.1-0.5-0.1-1
		c-0.3-0.4-0.4-0.9-0.4-1.2c0.4,0,0.6-0.4,0.6-1.1c-0.4,0-0.6,0.4-0.6,1.1c-0.4-0.9-0.4-1.7,0-2.3c0.4-0.6,0.5-1.4,0.3-2.3
		c0.2,0,0.4-0.1,0.6-0.3c-0.4-0.4-0.6-0.3-0.6,0.3c-0.6-0.9-0.8-2.3-0.7-4.2c0.1-1.9,0.7-3.6,1.8-5.1c-0.4-0.4-0.7-0.6-1-0.8
		c-0.3-0.2-0.2-0.7,0.1-1.6c0.4,0,0.4,0.2,0.1,0.7c-0.3,0.5-0.2,0.5,0.1,0.1c0.9-0.6,1.1-0.9,0.4-1.1c-0.6-0.2-0.8-0.6-0.4-1.4
		c0.4,0.2,0.5,0.4,0.3,0.6c-0.2,0.2-0.1,0.3,0.3,0.3c0.4-0.2,0.5-0.6,0.3-1.1c-0.2-0.6-0.1-0.9,0.3-1.1c0-0.2-0.4-0.3-1.1-0.3
		c0.4-2.4,0.9-5,1.6-7.9c0.7-2.9,1.6-5.5,2.7-7.7c0-1.8,0.4-3.5,1.1-5.1c0.7-1.5,1.6-2.9,2.5-4c0.6-3.1,1.5-5.5,2.9-7.2
		c1.4-1.7,2.5-4,3.4-6.7c1.1-0.4,1.8-1,2.1-1.9c0.3-0.9,0.9-1.5,1.8-1.9v-1.6c0.7,0,0.9,0.2,0.6,0.5c0.9-1.5,2-2.8,3.1-4
		c1.2-1.2,1.9-2.4,2.1-3.7c2.6,0,5-0.4,7.2-1.1s4.6-1.4,7-2.1s4.7-1,7.1-1.1c2.4-0.1,4.8,0.5,7.4,1.8c0.7,0.7,1.4,1.4,1.9,2
		c0.6,0.6,1.2,1.1,1.9,1.5c0.9,2.2,1.4,4.8,1.5,7.8c0.1,3,0.1,5.8,0.1,8.4c0,0.5-0.1,0.8-0.4,0.8s-0.5,0.1-0.7,0.3
		c0.2,2-0.1,3.5-0.8,4.4c-0.7,0.9-1.6,1.6-2.7,2.2c-1.1,0.5-2.3,1-3.6,1.4s-2.4,0.9-3.3,1.6c-0.7-1.8-1.1-3.9-1.2-6.3
		c-0.1-2.4-0.2-4.7-0.4-7.1c-0.2-2.4-0.6-4.6-1.1-6.7c-0.6-2.1-1.5-3.8-2.7-5.1c-1.3,0.9-2.5,1.9-3.6,2.9
		C182,24.9,181.1,26.1,180.6,27.6z M145.3,82.9c0.2-0.6,0.3-1.4,0.4-2.6c0.1-1.2,0-1.9-0.4-2.1c-0.2,0.6-0.3,1.5-0.4,2.7
		C144.8,82.2,144.9,82.9,145.3,82.9z M145,76v-1.1c0.4,0,0.6,0.1,0.6,0.4c0,0.3-0.1,0.5-0.3,0.7C145.3,76,145,76,145,76z
		 M145.3,86.7c-0.4,0.4-0.3,0.4,0.1,0C145.9,86.3,145.8,86.3,145.3,86.7z M145.3,69.7h0.3v0.6h-0.3V69.7z M147.3,65.9
		c0.5-1.1,0.4-1.9-0.1-2.5c0,0.9-0.1,1.9-0.4,2.9s-0.2,2,0.1,2.9C146.7,68.1,146.9,67,147.3,65.9z M147.7,62.1
		c0.4,0,0.6-0.2,0.6-0.7s0.1-0.9,0.3-1.2c-0.4,0-0.6,0.2-0.6,0.7C148,61.3,147.9,61.7,147.7,62.1z M149.8,56.9
		c0.6-0.9,0.6-1.5-0.1-1.9c0,0.7-0.2,1.5-0.7,2.5c-0.4,0.9-0.5,1.6-0.1,2.2C148.8,58.7,149.2,57.8,149.8,56.9z M151.3,52.6
		c0.2-0.3,0.1-0.5-0.3-0.7c0,0.4-0.2,0.6-0.6,0.8c-0.4,0.2-0.2,0.4,0.6,0.5C151,53.1,151.1,52.9,151.3,52.6z M153.2,46.7
		c-0.2,0.9-0.2,1-0.1,0.3C153.2,46.3,153.2,46.2,153.2,46.7z M153.8,43.5c0.4,0,0.4,0,0.3-0.1C153.9,43.2,153.8,43.3,153.8,43.5z
		 M159.2,34.8c0-0.5-0.2-0.4-0.6,0.1C159.1,35.3,159.2,35.3,159.2,34.8z M163.1,28.9c-0.2-0.4,0-0.6,0.6-0.7s0.6-0.3,0-0.7
		c-0.2,0.4-0.5,0.6-0.8,0.8C162.4,28.6,162.5,28.8,163.1,28.9z M164.4,26.5c-0.6,0.4-0.5,0.5,0.3,0.4
		C165.4,26.8,165.4,26.7,164.4,26.5z M165.8,25.6c0.6-0.9,1.3-1.9,2.2-2.9c0.9-1,1.6-2,1.9-2.9c-0.9,0.9-1.8,1.9-2.6,2.9
		C166.5,23.8,166,24.7,165.8,25.6z M169.6,19.4c-0.4,0.5-0.3,0.6,0.1,0.1C170.2,19,170.2,19,169.6,19.4z M187.4,94.6v-0.6h-0.8v0.6
		H187.4z M193.7,86.7h0.6v-0.6h-0.6V86.7z M195.4,84.8c0-0.2,0.1-0.3,0.4-0.4c0.3-0.1,0.2-0.2-0.1-0.4c0,0.2-0.2,0.3-0.6,0.4
		C194.7,84.5,194.8,84.6,195.4,84.8z M195.9,84c0.4-0.4,0.7-0.7,1.1-1.1c0.4-0.4,0.4-0.7,0-1.1c0,0.4-0.2,0.7-0.6,1
		C196.1,83,195.9,83.4,195.9,84z M200.3,78.2c0.4,0,0.6-0.1,0.6-0.3s0.1-0.4,0.3-0.6h-0.3C200.5,77.4,200.3,77.7,200.3,78.2z
		 M201.4,76.3c0.4,0.6,0.6,0.6,0.6,0C201.9,75.8,201.8,75.8,201.4,76.3z M202.2,75.2c-0.2,0.6-0.1,0.6,0.1,0.1
		C202.6,74.9,202.6,74.8,202.2,75.2z M203.6,73.6c-0.4,0.4-0.4,0.6-0.1,0.8S203.8,74.3,203.6,73.6c0.6,0,0.7-0.1,0.4-0.3
		C203.7,73.1,203.6,73.2,203.6,73.6z M205,72.9c0.2-0.3,0.1-0.4-0.3-0.4l-0.6,0.6C204.5,73.2,204.8,73.2,205,72.9z M205.2,71.1
		c-0.6,0.7-0.5,1,0.3,0.8C206.2,71.7,206.1,71.5,205.2,71.1z M206.1,69.7v0.6h0.8c0-0.2,0.1-0.3,0.3-0.3v-0.3h-0.8
		C206.3,69.9,206.2,69.9,206.1,69.7z M208.2,68.5c0.2-0.4,0-0.7-0.6-0.7c0,0.4-0.1,0.6-0.1,0.7c-0.1,0.1-0.1,0.3-0.1,0.7
		C207.8,69.2,208.1,68.9,208.2,68.5z M210.2,66.3c0.2-0.3,0-0.4-0.6-0.4c0,0.4-0.1,0.5-0.3,0.4c-0.2-0.1-0.3,0.1-0.3,0.4
		C209.6,66.7,210,66.6,210.2,66.3z M212.6,63.2c0-0.2,0-0.3,0.1-0.4c0.1-0.1,0-0.3-0.1-0.7c0,0.4-0.1,0.6-0.3,0.7
		C212.2,62.8,212.2,63,212.6,63.2z M213.7,61.2c0.2,0.4,0.3,0.3,0.3-0.1C214,60.7,213.9,60.7,213.7,61.2z M215.6,58.2
		c0.4,0,0.7-0.1,1.1-0.3C216.2,58,215.8,58,215.6,58.2z M225.2,61.8c-0.6-0.2-0.8-0.1-0.8,0.3c0,0.4-0.1,0.7-0.3,1.1
		C224.9,63,225.2,62.5,225.2,61.8h0.6V61C225.4,61,225.2,61.2,225.2,61.8z M234.9,44.4c0.1-0.3,0.3-0.4,0.7-0.4
		c-0.2,0.4-0.3,0.7-0.4,1c-0.1,0.3-0.4,0.4-1,0.4C234.6,45,234.8,44.7,234.9,44.4z"/>
	<path class="st0" d="M216.2,88.3c-0.4-0.2-0.4-0.4-0.1-0.8C216.3,87.2,216.4,87.4,216.2,88.3z M286.8,38v-0.5l-0.3,0.3
		C286.5,37.9,286.6,38,286.8,38c-0.9,2.6-1.7,5.2-2.3,7.9c-0.6,2.7-1.4,5.3-2.3,7.7c0,3.7-0.1,7.1-0.4,10.4
		c-0.3,3.3-0.4,6.8-0.4,10.7c0.2,1.8,0.4,3.7,0.7,5.8c0.3,2,0.6,4,1,5.9c0.4,1.9,0.9,3.7,1.5,5.5c0.6,1.7,1.6,3.2,2.9,4.5
		c5.5-2.6,9.9-6,13.4-10.3c3.5-4.3,7.1-8.5,11-12.7c-0.2-0.4-0.1-0.6,0.1-0.8c0.3-0.2,0.4-0.6,0.4-1.1c0.4,0,0.5-0.2,0.5-0.6
		c0-0.4,0.3-0.4,0.8,0c2.2-3.7,4.5-7,6.8-10.1c2.4-3.1,4.6-6.3,6.8-9.6c0-0.4-0.1-0.5-0.3-0.5s-0.2-0.1,0-0.3c1.5,0.4,2-0.5,1.6-2.5
		c0.4,0,0.6-0.1,0.8-0.3s0.4-0.1,0.5,0.3c0-1.3,0.4-2.2,1.1-2.7c0.7-0.5,1.3-1,1.6-1.4c0.9-1.3,2-2.7,3.1-4.4
		c1.2-1.6,2.4-3.2,3.7-4.7c0.2,0.4,0.5,0.7,0.8,1.1c-0.2,0.9-0.3,1.6-0.4,2.2s0,1.2,0.4,1.9c-0.4,1.1-0.8,2.2-1.4,3.4
		c-0.5,1.2-1.2,2.2-1.9,3.2c0.4,0.9,0.3,1.7-0.1,2.5c-0.5,0.7-1,1.2-1.8,1.4c0.2,0.5,0.4,0.7,0.5,0.4c0.2-0.3,0.5-0.4,0.8-0.4
		c0,0.7-0.2,1.1-0.7,1.2c-0.5,0.1-0.7,0.3-0.7,0.7c-0.2,0.4-0.4,0.5-0.5,0.5s-0.3,0.1-0.3,0.3c0.9,0.4,1.2,0.1,0.8-0.8
		c0.5,0.4,0.9,0.3,1-0.3c0.1-0.5,0.3-0.6,0.7-0.3c-0.4,0.9-0.9,1.8-1.5,2.6s-1.1,1.7-1.5,2.6c0.5-0.4,1-0.8,1.4-1.4
		c0.4-0.5,0.8-1.1,1.4-1.6c-0.4,0.7-0.8,1.6-1.2,2.6c-0.5,1-1,1.7-1.5,2c0,0.2,0.1,0.3,0.3,0.3s0.4,0.2,0.5,0.5
		c-0.5,0.4-0.9,0.9-1.1,1.6c-0.2,0.7-0.5,1.5-0.8,2.2h-0.8c-0.2,0.4-0.2,0.6,0,0.7s0.3,0.4,0.3,1c-0.9,0.9-1.5,1.8-1.9,2.7
		c-0.4,0.9-0.9,1.7-1.6,2.5c-0.4,2.9-1.6,5.7-3.8,8.2c-2.2,2.6-3.8,5.2-4.9,7.9c-1.8,2-3.7,4.1-5.6,6.2c-1.9,2.1-4,4-6.3,5.8
		c-2.3,1.7-4.8,3.2-7.7,4.4c-2.8,1.2-6.1,1.8-9.7,1.8c-2.2,0.9-4.1,0.8-5.6-0.3s-3.1-2.1-4.8-3c-1.5-0.9-2.9-1.7-4.4-2.3
		s-2.6-1.4-3.6-2.3c-1.8-1.6-3.2-3.6-4.2-5.9c-1-2.3-1.7-4.6-2-7c-0.2-0.4-0.3-0.7-0.3-1.1c0-0.4-0.1-0.7-0.3-1.1
		c0-0.9-0.1-1.8-0.3-2.7c-0.2-0.9-0.1-1.6,0.3-1.9c-0.4-0.4-0.6-0.7-0.7-1c-0.1-0.3-0.2-0.5-0.4-0.7c0-0.4,0-0.7,0.1-1.1
		c0.1-0.4,0-0.7-0.1-1.1c-0.5,0.6-1,1.4-1.4,2.5c-0.2,0-0.3,0-0.3-0.1c0-0.1-0.1-0.1-0.3-0.1c-3.3,5.1-6.7,10.1-10.1,15.1
		s-7.7,9.2-12.6,12.9c-1.1,0.2-2.1,0.5-3,0.8c-0.9,0.4-2,0.6-3.3,0.8c-4.2-0.2-7.4-1.4-9.7-3.6c-2.3-2.2-4.6-4.5-7-6.8
		c0.4-0.4,0.3-0.9-0.3-1.5c-0.6-0.6-0.4-1.1,0.3-1.5c-0.9-0.9-1.1-1.8-0.6-2.7c0.4-0.9,0.5-1.9,0.4-2.9s-0.1-2.2-0.1-3.7l0.3,0.3
		c0,0.2,0.1,0.3,0.3,0.3c0-0.7-0.1-1.1-0.3-1.1c-0.2-0.4-0.2-0.6-0.1-0.8s0.3-0.1,0.7,0.3c0-0.6-0.1-0.8-0.3-0.8l0.8-0.6
		c-0.9-1.8-0.8-3.7,0.4-5.6c1.2-1.9,1.7-3.9,1.5-5.9v0.8c0.4-0.2,0.6-0.6,0.8-1.1c0.2-0.6,0-0.9-0.6-1.1c0-0.7,0.1-0.9,0.3-0.6
		c0.2,0.4,0.5,0.4,0.8,0c0-1.1,0.2-2,0.6-2.6c0.4-0.6,0.4-1.4,0-2.3c0.2,0.4,0.4,0.5,0.6,0.3c0.4-1.5,1-3,1.9-4.8
		c0.9-1.7,1.6-3.5,1.9-5.3c0.4,0.2,0.4,0.4,0,0.7c-0.4,0.3-0.4,0.6,0,1c0.9-1.5,1.6-2.8,2.1-4.1c0.4-1.3,1.1-2.5,2.1-3.8
		c0.6-0.4,0.9-0.8,1-1.4c0.1-0.5,0.3-1.1,0.7-1.6c-0.2,0,0.1,0.2,0.8,0.5c0.4-1.5,1.1-2.7,2.2-3.8h0.3v-0.3c0.7-1.5,1.7-2.6,3-3.6
		c0.7-1.3,1.5-2.4,2.3-3.3c0.8-0.9,1.6-1.8,2.3-2.7c0-0.2-0.2-0.3-0.6-0.4c-0.4-0.1-0.5-0.3-0.3-0.7c0.7,0.4,1.5,0.5,2.3,0.5
		s1.4-0.4,1.8-1.1c3.6-0.9,7.2-1.1,10.7-0.7c3.5,0.5,6,2,7.7,4.5c-0.2,0.4-0.5,0.5-1.1,0.5c0.4,0.9,0.6,2,0.7,3.2
		c0.1,1.2,0.3,2.5,0.7,4c0.7-0.4,1.2-0.8,1.5-1.4c0.3-0.5,0.6-1.1,1-1.6c0.4,0.4,0.3,0.8-0.1,1.2c-0.5,0.5-0.7,1-0.7,1.5
		c0.7-0.9,1.4-1.8,2-2.7c0.6-0.9,1.1-2.1,1.5-3.6c0.4,0,0.7-0.2,1.1-0.5c0.4-0.4,0.4-0.7,0-1.1c0.4-1.6,1-3.1,2-4.5s1.6-2.8,1.8-4.2
		c2.4-0.4,4.9-0.4,7.7,0c2.7,0.4,5.1,1,7.1,1.9c1.1,2,1.1,4.1,0.1,6.2s-1.9,4-2.6,5.6C287.6,35.8,287.5,36.7,286.8,38z M216.7,81.2
		c0,0.6-0.1,0.7-0.4,0.4C216,81.4,216.2,81.2,216.7,81.2z M217,79.8c0,0.2-0.1,0.3-0.3,0.3C216.5,80.1,216.6,80,217,79.8z
		 M217.8,76.6c0.2,0.7,0.3,0.8,0.3,0.3C218.1,76.3,218,76.2,217.8,76.6z M218.9,75.5c0-0.6-0.1-0.6-0.3-0.3
		C218.8,75.9,218.9,76,218.9,75.5z M220,66.4c0.2,0.9,0.1,1.2-0.1,0.8C219.6,66.9,219.6,66.6,220,66.4z M221.1,63.2
		c0.2-0.5,0.3-0.5,0.3,0C221.4,63.7,221.3,63.7,221.1,63.2z M223.6,56.3l-0.3,0.3L223.6,56.3z M223.6,59.6c0.6,0,0.7-0.1,0.4-0.4
		C223.7,58.9,223.6,59,223.6,59.6z M224.2,58.2c0.3,0.2,0.4,0.1,0.4-0.3C224.1,58,224,58,224.2,58.2z M226,54.7
		c0.2,0.4,0.3,0.3,0.3-0.1C226.3,54.1,226.2,54.1,226,54.7z M226.9,49.6c0,0.5-0.1,0.5-0.3,0.1C226.8,49.2,226.9,49.2,226.9,49.6z
		 M227.1,52.8c-0.2-0.4-0.1-0.6,0.1-0.7c0.3-0.1,0.4-0.2,0.4-0.4c-0.4-0.2-0.6-0.1-0.8,0.1C226.7,52.1,226.8,52.4,227.1,52.8z
		 M227.7,50.6c-0.4,0.5-0.4,0.6,0,0.1C228,50.2,228,50.2,227.7,50.6z M236.4,64.2c-3.8,8.2-6.4,17.5-7.7,27.9c2-1.1,3.6-2.3,4.8-3.7
		c1.2-1.4,2.2-3.1,3.1-5.1c1.3-0.9,2.3-2.1,3-3.6s1.6-2.7,2.7-3.8c0,0.4,0.1,0.4,0.3,0.1c0.2-0.3,0.1-0.3-0.3-0.1
		c0.9-1.5,1.8-2.9,2.7-4.4c0.9-1.5,1.8-2.7,2.7-3.8c0,0.7,0.1,1,0.4,0.7c0.3-0.3,0.1-0.5-0.4-0.7c0.7-2,1.6-3.5,2.7-4.4
		c0,0.5-0.2,1-0.7,1.4c-0.5,0.4-0.5,0.7-0.1,1.1c0.2-0.4,0.5-0.9,1-1.6c0.4-0.7,0.4-1-0.1-0.8c0.4-0.9,0.9-2,1.6-3.3
		c0.7-1.3,1.5-2.3,2.2-3c0,0.7-0.2,1.2-0.7,1.5c-0.5,0.3-0.7,0.8-0.7,1.5c0.7-0.4,1.3-0.9,1.6-1.6c0.4-0.7,0.7-1.5,1.1-2.5
		c0.2,0,0.3-0.1,0.4-0.4s0.2-0.5,0.4-0.7c-0.5,0-0.8,0.4-0.8,1.1c-0.4,0-0.6,0.2-0.7,0.7c-0.1,0.5-0.2,0.5-0.4,0.1
		c0.9-2,2-3.9,3.3-5.8c1.3-1.8,2.4-3.8,3.3-6c-0.4-0.9-0.8-1.7-1.2-2.3c-0.5-0.6-0.9-1.3-1.2-2c0-0.4-0.3-0.5-0.8-0.5
		c0-0.7-0.1-1.1-0.3-1.1c-0.5-0.9-1-2-1.4-3.3c-0.4-1.3-1.2-2.1-2.5-2.5c-1.1,0.9-2.1,2-3,3.4c-0.9,1.4-1.6,2.7-1.9,4
		C244.5,48.2,240.3,56,236.4,64.2z M230.4,42.3c0.6,0.4,0.6,0.6,0.3,0.7s-0.5,0.3-0.3,0.7c-0.4,0-0.5-0.1-0.3-0.4
		C230.3,43,230.4,42.7,230.4,42.3z M232.9,39.9C233.2,39.5,233.2,39.5,232.9,39.9C232.5,40.2,232.5,40.2,232.9,39.9z M235.1,38.2
		v0.3h-0.3c-0.2,0-0.3-0.1-0.3-0.3C234.5,38.1,234.7,38.1,235.1,38.2z M235.3,35.8c0,0.4-0.1,0.5-0.1,0.5
		C235.1,36.3,235.1,36.2,235.3,35.8z M235.3,35.8h0.3c0.2,0,0.3,0,0.3-0.1c0-0.1,0.1-0.1,0.3-0.1v0.3L235.3,35.8L235.3,35.8z
		 M236.2,35.2c0.2-0.2,0.3-0.4,0.3-0.7s0.2-0.4,0.6-0.4C237,34.9,236.7,35.2,236.2,35.2z M239.4,31.7c0,0.4-0.2,0.5-0.6,0.3
		C238.5,31.8,238.7,31.7,239.4,31.7z M239.4,81.5c-0.6,0-0.7,0.1-0.4,0.4C239.3,82.2,239.4,82.1,239.4,81.5c0.4,0,0.4-0.1,0.1-0.3
		C239.3,81,239.3,81.1,239.4,81.5z M239.4,31.4c0-0.4,0.1-0.6,0.3-0.7c0.2-0.1,0.3-0.2,0.3-0.4c0.4,0.2,0.4,0.4,0.1,0.7
		C239.9,31.3,239.6,31.4,239.4,31.4z M241.1,29.2c0.4-0.2,0.4-0.1,0,0.3C240.7,29.9,240.7,29.8,241.1,29.2z M243,75.2
		c0.2,0.6,0.3,0.6,0.4,0.1C243.5,74.9,243.4,74.8,243,75.2z M249,67.5V67h-0.6v0.6H249z M249,40.7c0-0.2,0-0.3,0.1-0.3
		c0.1,0,0.1,0.1,0.1,0.3H249z M249.3,66.2c0.2,0.7,0.3,0.8,0.3,0.1S249.5,65.6,249.3,66.2z M251.2,63.2c0.6,0,1-0.5,1.4-1.4
		c-0.6,0-0.9,0.2-1,0.5C251.5,62.7,251.4,63,251.2,63.2z M256.4,54.4c0.7-0.4,1.4-1,2-1.9c0.6-0.9,0.9-1.7,0.7-2.5
		C258.2,51.7,257.3,53.1,256.4,54.4z M257.8,39.1c-0.2,0.5-0.3,0.6-0.4,0.1C257.3,38.8,257.4,38.7,257.8,39.1z M258.1,40.2
		c0,0.4,0.3,0.5,0.8,0.5c-0.4,0.4-0.3,0.7,0.1,1.1c0.5,0.4,0.5,0.7,0.1,1.1c0-0.4-0.2-0.8-0.7-1.4C258,41,257.9,40.5,258.1,40.2z
		 M259.4,43.5c0-0.2,0.1-0.3,0.3-0.3s0.3,0.1,0.3,0.3H259.4z M261.1,43.5c0-1.1-0.5-1.8-1.4-2.2C259.7,41.8,260.2,42.5,261.1,43.5z
		 M260,44h0.3c0.2,0,0.3-0.1,0.3-0.3l-0.3,0.3H260z M260,50.3c0.4,0.5,0.5,0.6,0.5,0.1C260.5,50,260.3,49.9,260,50.3z M261.1,47.3
		c-0.4,0-0.7,0.2-1,0.7c-0.3,0.5-0.1,0.8,0.4,1c-0.4-0.4-0.4-0.6,0-0.7C260.9,48.2,261.1,47.8,261.1,47.3h0.3c0-0.2,0.1-0.4,0.4-0.7
		s0.2-0.6-0.1-1c-0.2,0.4-0.3,0.6-0.4,0.8S261.1,46.9,261.1,47.3z M261.4,43.7c0.2,0.7,0.3,0.8,0.3,0.3
		C261.6,43.5,261.5,43.4,261.4,43.7z M264.4,79.4c0,0.6-0.1,0.6-0.3-0.1C264.3,78.8,264.4,78.8,264.4,79.4z M264.9,84.5
		c0.5,0.2,0.7,0.5,0.5,0.8c-0.2,0.4-0.5,0.6-1.1,0.6c0.2-0.2,0.3-0.4,0.3-0.6C264.6,85.2,264.7,84.9,264.9,84.5z M265.7,38.5v0.5
		c0.2,0.4,0.3,0.3,0.4-0.1C266.2,38.5,266.1,38.3,265.7,38.5z M266.5,81.8l-0.3,0.6H266C266.4,82.3,266.5,82.1,266.5,81.8z
		 M267.1,89.7c-0.5,0-0.7-0.2-0.4-0.6C267,88.8,267.1,89,267.1,89.7z M267.1,39.1c0,0.4-0.1,0.5-0.3,0.3
		C266.6,39.2,266.7,39.1,267.1,39.1z M267.6,38.5c0-0.2,0-0.3,0.1-0.4c0.1-0.1,0-0.3-0.1-0.7c0,0.4-0.1,0.6-0.3,0.7
		C267.2,38.2,267.3,38.3,267.6,38.5z M268.3,36.6c0.5-0.4,0.4-0.4-0.1,0C267.8,37,267.9,37,268.3,36.6z M270.9,30.3
		c-0.2,0.4-0.4,0.6-0.7,0.7c-0.3,0.1-0.4,0.4-0.4,1c-0.4,0.4-0.6,0.8-0.8,1.4s-0.5,1.1-0.8,1.6c-0.4-0.9-0.2-1.7,0.5-2.5
		c0.7-0.7,1.3-1.5,1.6-2.5c0.2,0,0.3,0,0.3,0.1C270.6,30.3,270.7,30.3,270.9,30.3z M269.6,34.7c0.2,0,0.2-0.1,0.1-0.3
		C269.6,34.2,269.6,34.3,269.6,34.7z M272.3,28.7c-0.2,0.2-0.5,0.3-1.1,0.3c0.2,0.2,0.2,0.5,0,0.8c-0.2,0.4-0.1,0.5,0.3,0.5
		c0-0.4,0.1-0.6,0.4-0.8C272.2,29.3,272.3,29,272.3,28.7h0.3v-0.5C272.4,28.1,272.3,28.3,272.3,28.7z M272.8,27.3
		c0.4,0,0.4-0.1,0.1-0.3C272.7,26.8,272.7,26.9,272.8,27.3z M327,71.4h0.3H327z M330.6,65.8c0-0.4-0.1-0.4-0.3,0.1
		C330.5,66.3,330.6,66.2,330.6,65.8z M333.1,58.2h-0.5h-0.3c-0.2,0.7,0,1,0.5,0.7C333.3,58.6,333.4,58.4,333.1,58.2z M332.8,63.2
		c0.2,0,0.3,0.2,0.3,0.5c-0.2,0-0.4,0-0.5-0.1C332.3,63.5,332.4,63.3,332.8,63.2z M333.9,53.8c0.4,0.5,0.5,0.6,0.5,0.1
		C334.4,53.5,334.2,53.5,333.9,53.8z M336.4,48.4c0.2,0.5,0.3,0.5,0.4,0C336.9,47.8,336.7,47.8,336.4,48.4z M336.8,47.5
		c-0.1-0.2-0.1-0.1-0.1,0.3C336.8,47.8,336.9,47.7,336.8,47.5z"/>
	<path class="st0" d="M316.9,108.6c0-0.4,0-0.4,0.1-0.3C317.1,108.5,317.1,108.6,316.9,108.6z M367,74.1c-0.4-1.3-0.4-2.4,0-3.4
		c0.4-1,0.2-1.9-0.5-2.6c0.4-0.9,0.5-1.8,0.4-2.7c-0.1-0.9,0-1.8,0.1-2.7c0.4-0.4,0.4,0,0.1,1.2c-0.3,1.2-0.2,2,0.1,2.3v0.3
		c-0.4,0.9-0.4,1.6,0,1.9c0.4-0.2,0.5-0.4,0.5-0.8c0-0.4-0.2-0.7-0.5-1.1c0.5-1.1,0.7-2.2,0.4-3.3c-0.3-1.1-0.2-2.3,0.1-3.6
		c-0.5,0-0.7,0.3-0.5,0.8c0.2,0.5,0.1,1-0.3,1.4c-0.4-1.1-0.3-2.1,0.3-3c0.5-0.9,0.7-2,0.5-3.3c-1.1-1.3-1.4-3-1-5.2
		c0.5-2.2,0.2-4.3-0.7-6.3c0,0.4-0.1,0.7-0.3,1.1c-0.2,0.4-0.1,0.7,0.3,1.1c-0.4,0.4-0.6,0.3-0.8-0.1c-0.2-0.5-0.3-0.9-0.3-1.2
		c-3.6,3.7-6.7,7.9-9.2,12.7c-2.5,4.8-5.1,9.5-7.8,14.1c0,2.9-0.7,4.6-2.2,4.9c0,0.2,0,0.5,0.1,1c0.1,0.5-0.1,0.6-0.7,0.4
		c-1.8,6.6-4,12.8-6.6,18.8c-2.6,5.9-4.6,12.3-6.3,19c-0.4,0.4-0.5,0.7-0.5,1.1c-0.7,0-1.1,0.2-1.1,0.6c-0.9,0.2-1.5,0.2-1.9,0
		c-0.4-0.2-1-0.3-1.9-0.3c-2-0.9-3.7-2.2-5.2-3.8c-1.5-1.6-3-3.1-4.6-4.4c0.4-1.5,0.5-2.9,0.4-4.2c-0.1-1.4-0.1-3.2-0.1-5.3
		c0.5,1.1,0.7,2.3,0.5,3.6c-0.2,1.3-0.3,2.8-0.3,4.7c0.4-0.6,0.5-1.3,0.5-2.2c0-0.9,0-1.8,0-2.7c0-0.9,0-1.8,0.1-2.7
		c0.1-0.9,0.3-1.6,0.7-2.2c-0.2,1.1-0.3,2.5-0.4,4.1c-0.1,1.6,0,2.9,0.1,3.8v0.8c0.5,0,0.5-0.3,0-0.8c0.4-5.3,0.9-10.6,1.5-16
		c0.6-5.4,1.4-11,2.3-16.8c0.2,0,0.4,0.1,0.5,0.1s0.4,0.1,0.5,0.1c-0.2-1.5-0.2-2.9,0-4.4s0.7-2.6,1.6-3.6c-0.4-1.3-0.4-2.5-0.1-3.8
		c0.3-1.3,0.6-2.5,1.1-3.7c0.5-1.2,0.8-2.4,1-3.6c0.2-1.2,0-2.3-0.5-3.4c0.4-0.4,0.5-0.6,0.5-0.8s0.2-0.5,0.5-1.1
		c0.4,0.2,0.4,0.4,0,0.7c-0.4,0.3-0.4,0.5,0,0.7c0.5,0,0.8-0.2,0.8-0.5c0-0.4,0-0.7,0-1.1c-0.2-0.4-0.4-0.4-0.7-0.1
		s-0.5,0.3-0.7,0.1c0.7-0.9,1.1-2,1.2-3.3s0.3-2.4,0.7-3.3c0,0.2,0.3,0.3,0.8,0.3c0-0.2-0.3-0.3-0.8-0.3c0.4-0.9,0.5-1.7,0.5-2.5
		s0.3-1.5,0.8-2.5c-0.2-0.4-0.5-0.5-1-0.4c-0.5,0.1-0.6-0.1-0.4-0.7c1.5-0.4,2.9-0.5,4.2-0.4c1.4,0.1,2.6,0,3.7-0.4
		c0.4,0,0.5,0.1,0.3,0.3c0.2,0,0.3-0.4,0.3-1.1c1.1,0.4,2.4,0.7,3.8,1.1c1.5,0.4,2.6,1,3.6,1.9c0.4,0.9,0.5,1.9,0.3,2.9
		c-0.2,1-0.1,1.8,0.3,2.3c1.3-0.9,2.4-2,3.3-3.4s1.8-2.2,2.7-2.6c0.9-2,2.8-3.4,5.6-4.2s5.4-0.7,7.8,0.4c6.4-0.2,10.9,1.9,13.4,6.2
		c2.5,4.3,4.1,9.5,4.6,15.7c-0.4,1.6-0.5,3.7-0.4,6.2s0.2,4.4,0.4,5.9c0,5.7-0.3,11.8-1,18.5c-0.6,6.7-0.1,12.9,1.5,18.8
		c1.5,0.2,2.5-0.3,3.3-1.4c0.7-1.1,1.6-1.6,2.7-1.4c0.2,0.4,0.1,0.6-0.1,0.8c-0.3,0.2-0.4,0.5-0.4,0.8c0.4,0,0.6-0.1,0.7-0.3
		s0.2-0.1,0.4,0.3c0.4,0.6,0.4,0.8,0,0.8c-0.4,0-0.5,0.3-0.5,0.8c0.5,0,0.8-0.2,0.8-0.6c0-0.4,0.3-0.4,0.8,0c0.2,0.9,0.2,1.6,0,2.1
		c-0.2,0.5-0.1,0.9,0.3,1.2c0,0.4-0.3,0.7-1,1.1c-0.6,0.4-0.5,0.7,0.4,1.1c-0.5,0.4-1.4,1.1-2.5,2.2c-0.9-0.4-1.7-0.5-2.3-0.4
		c-0.6,0.1-1.7,0.1-3.1,0.1c-0.7-0.4-1.4-0.7-2-1c-0.6-0.3-1.2-0.6-1.8-1c-1.3-1.5-2.7-2.6-4.4-3.3c-1.6-0.7-3.1-1.8-4.4-3.3
		c-0.4-1.1-0.8-2.2-1.2-3.4c-0.5-1.2-1-2.1-1.5-2.9c0.4-0.4,0.4-1,0.1-1.8s-0.6-1.4-1-1.8c0.5-1.1,0.6-2.2,0.3-3.4
		c-0.4-1.2-0.5-2.7-0.3-4.5c0.5,1.3,0.7,2.6,0.5,3.8c-0.2,1.3-0.1,2.5,0.3,3.6c0.2-2.6,0.2-4.8,0.1-6.7s-0.3-3.8-0.7-5.6
		c-0.2,0.2-0.2,0.6-0.1,1.2c0.1,0.6,0.1,1.1,0.1,1.5c-0.5-1.1-0.6-2.3-0.3-3.6c0.2,0,0.3,0.2,0.3,0.6c0.5-1.1,0.8-2.5,0.7-4.2
		c-0.1-1.7-0.3-3.4-0.7-5.1c-0.2,0.4-0.2,0.9-0.1,1.6c0.1,0.7,0.1,1.5,0.1,2.2L367,74.1L367,74.1z M317.5,97.7
		c0.5,0,0.7,0.1,0.5,0.3c-0.2,0.2-0.3,0.5-0.3,0.8c-0.2,0-0.2-0.1-0.1-0.4C317.7,98.1,317.6,97.8,317.5,97.7z M318,95.5v1.1
		c-0.2,0-0.3-0.2-0.3-0.6C317.7,95.6,317.8,95.5,318,95.5z M318,96.6c0.4,0,0.4,0.1,0.1,0.4C317.9,97.2,317.8,97.1,318,96.6z
		 M318.1,94.2c0.3-0.4,0.2-1.1-0.1-1.8c0.5,0.2,0.7,0.6,0.4,1.1c-0.3,0.6-0.2,1.2,0.1,1.9H318C317.8,95.1,317.9,94.7,318.1,94.2z
		 M318,108.1c-0.2,0.7-0.1,0.8,0.1,0.3C318.4,107.8,318.4,107.7,318,108.1z M318.8,90c0.2,0.7,0.1,0.9-0.3,0.6
		C318.2,90.2,318.3,90,318.8,90z M318.8,90c-0.2-0.9-0.1-1.2,0.1-0.8C319.2,89.5,319.2,89.8,318.8,90z M320.2,82.3
		c0.4-0.7,0.5-0.9,0.5-0.4c0,0.5,0.1,0.7,0.3,0.7c-0.7,2-1,3.9-1,5.8c0.1,1.8-0.3,3.4-1.2,4.7c0.4-1.8,0.7-3.7,1-5.5
		C320.1,85.7,320.2,84,320.2,82.3z M318.8,86.7c0.2-0.4,0.3-0.3,0.3,0.1C319.1,87.3,319,87.2,318.8,86.7z M318.8,88.3
		c0.2-0.4,0.3-0.3,0.3,0.1C319.1,88.9,319,88.9,318.8,88.3z M318.8,93.8c0.4,0,0.5,0.5,0.5,1.4c0,0.9-0.2,1.6-0.5,1.9
		c0.2-0.4,0.2-0.9,0.1-1.6C318.9,94.7,318.8,94.2,318.8,93.8z M319.4,82.9c0.2,0,0.3,0.3,0.4,0.8s-0.1,0.7-0.7,0.6
		C319.1,83.5,319.2,83.1,319.4,82.9z M319.1,85.1c0.4,0,0.5,0.3,0.5,0.8c-0.2,0-0.3,0.1-0.3,0.3C319.2,86,319.1,85.6,319.1,85.1z
		 M319.4,81.2h0.8v0.6h-0.8V81.2z M320.5,74.7c0.7,0.9,0.9,1.7,0.4,2.5c-0.5,0.7-0.7,1.6-0.7,2.5c-0.5-0.4-0.6-1.1-0.1-2.1
		C320.5,76.5,320.7,75.6,320.5,74.7z M321.2,79.7c-0.3,0.5-0.4,0.9-0.4,1.2c-0.4-0.2-0.5-0.4-0.3-0.8c0.2-0.4,0.3-0.6,0.3-0.8
		C321.3,79.1,321.4,79.3,321.2,79.7z M320.5,91.3c0.2,0.6,0.3,0.6,0.4,0.1C321,91,320.8,91,320.5,91.3z M321.3,76.8
		c0.5,0,0.6,0.2,0.3,0.6c-0.4,0.4-0.5,0.7-0.3,1.1c-0.4-0.2-0.5-0.4-0.3-0.7C321.2,77.5,321.3,77.2,321.3,76.8z M321.3,70.3
		c0.4,0.4,0.5,0.9,0.4,1.5c-0.1,0.6-0.3,1-0.7,1c0-0.6,0-1,0.1-1.4C321.2,71,321.3,70.6,321.3,70.3z M321.3,76
		c0.4-0.6,0.5-0.6,0.5-0.1C321.8,76.3,321.7,76.4,321.3,76z M321.8,67.8c0.5,0.2,0.7,0.5,0.4,1s-0.3,0.9-0.1,1.2
		c-0.5-0.2-0.7-0.5-0.4-1C322,68.6,322,68.2,321.8,67.8z M322.4,92.4c0.2-0.2,0.3-0.4,0.3-0.8c0-0.4-0.2-0.6-0.5-0.6
		C321.6,91.6,321.7,92.1,322.4,92.4z M322.4,71.4c-0.2,0.7-0.2,1.4-0.1,2.1c0.1,0.6,0,1-0.4,1c0.2-0.6,0.3-1.1,0.3-1.6
		C322.1,72.2,322.2,71.7,322.4,71.4z M321.8,82.3c0.2,0,0.2-0.1,0.1-0.3S321.8,82,321.8,82.3z M322.5,90.5c0.5-0.4,0.3-0.6-0.4-0.6
		C321.9,90.7,322.1,90.9,322.5,90.5z M322.7,64.5c0.4,0,0.5,0.2,0.4,0.7c-0.1,0.5-0.3,0.7-0.7,0.7c0-0.4,0-0.6,0.1-0.8
		C322.6,64.9,322.7,64.7,322.7,64.5z M322.7,70.3c0,0.4,0,0.6,0.1,0.6c0.1,0,0,0.2-0.1,0.6h-0.3C322.4,70.6,322.5,70.3,322.7,70.3z
		 M322.4,78.2c0.2,0.6,0.3,0.5,0.3-0.1C322.7,77.4,322.6,77.5,322.4,78.2z M322.7,70.3c-0.2-0.6-0.1-0.7,0.1-0.6
		C323.1,69.9,323,70.1,322.7,70.3z M322.7,67.8c1.1,0,1.2,0.5,0.3,1.4c-0.4,0-0.5-0.2-0.3-0.6C322.9,68.3,322.9,68,322.7,67.8z
		 M322.7,86.7c-0.2,0.9-0.1,1.1,0.3,0.7C323.3,86.9,323.2,86.7,322.7,86.7z M322.9,63.2c0.4,0.2,0.4,0.4,0,0.5
		c-0.2,0-0.3-0.1-0.3-0.3C322.7,63.2,322.8,63.2,322.9,63.2z M323.5,85.1c0-0.6-0.3-0.8-0.8-0.8c0.2,0.2,0.3,0.5,0.3,0.8
		C322.9,85.4,323.1,85.4,323.5,85.1z M322.9,63.2c0.4-0.7,0.5-1.4,0.4-1.9s0.1-1,0.7-1.4c-0.2,0.5-0.3,1.1-0.4,1.8
		S323.3,62.8,322.9,63.2z M322.9,74.1c0,0.6,0.1,0.6,0.3,0C323.4,73.6,323.3,73.6,322.9,74.1z M322.9,82.9c0.4,0.2,0.6,0,0.7-0.6
		s0-0.7-0.1-0.6C323.5,82.3,323.3,82.7,322.9,82.9z M324,61.5c0.4,0.5,0.5,1.4,0.3,2.5c-0.2,1.1-0.5,1.9-0.8,2.5
		C323.5,65,323.7,63.3,324,61.5z M324,74.7c-0.4,0-0.5,0.1-0.5,0.3C323.9,74.9,324,74.8,324,74.7z M324,67.8v0.6
		c0.4,0.2,0.6,0.1,0.7-0.3c0.1-0.4,0-0.4-0.4-0.3L324,67.8L324,67.8z M324.3,58c-0.2-0.9-0.1-1.2,0.3-1
		C325,57.3,324.9,57.6,324.3,58z M324.7,60.8c-0.1,0.5-0.2,0.5-0.4,0.1C324.7,60.4,324.8,60.4,324.7,60.8z M325.4,58.5
		c0,0.4,0,0.6,0,0.8s-0.3,0.3-0.8,0.3C324.6,58.9,324.9,58.5,325.4,58.5z M326.2,51.9c-0.4,0.4-0.5,0.8-0.5,1.2c0,0.5-0.1,1-0.3,1.5
		c-0.4-0.7-0.4-1.5,0-2.2c0.4-0.7,0.5-1.5,0.5-2.2c0.4,0,0.5,0.2,0.3,0.7C326,51.4,326,51.8,326.2,51.9z M325.7,57.1
		c0.2,0.5,0.1,0.8-0.1,0.7c-0.3-0.1-0.3-0.3-0.1-0.7H325.7z M326.2,51.9c0.4,0,0.6,0.2,0.7,0.5s0.1,0.6,0.1,0.8h-0.3
		c0,1.5-0.4,2.7-1.1,3.8c-0.5-0.9-0.5-1.6,0.1-2.2C326.5,54.4,326.6,53.4,326.2,51.9z M326.5,67.3c0-0.4-0.2-0.6-0.5-0.6
		c0,0.2,0,0.5-0.1,0.8c-0.1,0.4,0,0.6,0.4,0.6C326.4,67.7,326.5,67.4,326.5,67.3z M326.8,48.1c0.4,0,0.5,0.2,0.4,0.7
		c-0.1,0.5-0.4,0.7-1,0.7c0-0.4,0.1-0.6,0.3-0.7C326.7,48.7,326.8,48.5,326.8,48.1z M327,47.8c0-0.4,0-0.5,0.1-0.3
		C327.3,47.7,327.2,47.8,327,47.8z M327.9,51.9c-0.2-0.4-0.1-0.7,0.1-1c0.3-0.3,0.1-0.4-0.4-0.4c0,0.2-0.2,0.5-0.5,0.8
		C327.2,51.4,327.5,51.6,327.9,51.9z M327,58.8c0,0.9,0,1,0.1,0.4C327.3,58.5,327.2,58.4,327,58.8z M327.2,62.3
		c-0.1-0.2-0.1-0.1-0.1,0.3C327.2,62.6,327.3,62.5,327.2,62.3z M327.3,46.2c0.2-0.5,0.3-0.6,0.3-0.1
		C327.6,46.5,327.5,46.5,327.3,46.2z M327.9,43.5c0.4,0.4,0.5,0.6,0.3,0.8c-0.2,0.2-0.3,0.5-0.3,0.8c-0.4-0.2-0.5-0.5-0.3-0.8
		C327.8,43.9,327.9,43.6,327.9,43.5z M327.9,56.3C327.5,56.7,327.5,56.7,327.9,56.3C328.2,56,328.2,56,327.9,56.3z M327.9,59.6
		c0.4,0.4,0.5,0.3,0.5-0.1C328.4,59,328.2,59,327.9,59.6z M328.4,42.3C328.8,42,328.8,42,328.4,42.3C328,42.7,328,42.7,328.4,42.3z
		 M328.4,36.3c0-0.2,0.1-0.3,0.3-0.3l0.3,0.3H328.4z M328.7,47c-0.2,0.9-0.2,1,0,0.4C328.9,46.8,328.9,46.6,328.7,47z M329.2,40.7
		c0,0.5-0.2,0.7-0.5,0.5c0.2-0.4,0.3-0.7,0.3-1.1C329.1,40,329.2,40.2,329.2,40.7z M329,51.9c0,0.9,0.1,1,0.3,0.4
		C329.4,51.7,329.3,51.6,329,51.9z M329.4,45.4c0.5,0,0.4-0.2-0.1-0.5C328.9,45.2,328.9,45.4,329.4,45.4z M330.2,40
		c0.1-0.6,0.1-0.7,0.1-0.1C330.1,40.6,330.1,40.7,330.2,40z M330.6,38.2c-0.5,0.7-0.6,1-0.1,0.8C330.9,38.9,331,38.6,330.6,38.2z
		 M330.3,51.7c0.2,0.5,0.3,0.5,0.3,0C330.6,51.1,330.5,51.1,330.3,51.7z M354.1,36.3c0.4,0.4,0.5,0.3,0.5-0.3
		C354.7,35.5,354.5,35.6,354.1,36.3z M366.2,57.1c0.2-0.4,0.3-0.3,0.3,0.1S366.4,57.7,366.2,57.1z M366.7,55.5
		c0.5,0.5,0.8,1.1,0.8,1.6c0,0.5-0.2,0.4-0.5-0.5C366.6,56.2,366.5,55.9,366.7,55.5z M367,74.1v0.6c-0.2,0-0.3-0.1-0.3-0.3
		C366.7,74.2,366.8,74.1,367,74.1z M366.7,75.8c0-0.4,0-0.4,0.1-0.3C367,75.7,366.9,75.8,366.7,75.8z M367,76.3
		c0.2,0,0.3,0.2,0.3,0.7c0,0.5-0.2,0.6-0.5,0.4C366.9,77,367,76.7,367,76.3z M366.7,83.1h0.5v1.1h-0.5V83.1z M367.8,53.3
		c-0.4-0.4-0.5-0.7-0.3-1.1c0.2-0.4,0.1-0.6-0.3-0.8c-0.2,0-0.2,0.3-0.1,1C367.2,53,367.5,53.3,367.8,53.3z M367.8,54.7
		c0-0.2-0.1-0.3-0.3-0.3s-0.3,0.1-0.3,0.3C367.6,54.5,367.8,54.5,367.8,54.7z M367.8,69.4c0.2-0.2,0.3-0.4,0.3-0.6
		c0-0.4-0.1-0.6-0.3-0.6c-0.2,0.2-0.3,0.4-0.3,0.6C367.6,69.3,367.6,69.4,367.8,69.4z M368.4,92.7c0-0.2-0.1-0.3-0.3-0.3
		s-0.3,0.1-0.3,0.3c0.2-0.2,0.3-0.2,0.4,0C368.3,92.9,368.4,92.9,368.4,92.7z M368.4,94.1c0,0.9,0.1,1,0.3,0.3
		C368.8,93.6,368.7,93.5,368.4,94.1z M368.6,95.5c0.2,0.4,0.3,0.3,0.3-0.1C368.9,94.9,368.8,94.9,368.6,95.5z M369.5,97.2
		c0-0.4-0.2-0.4-0.5,0.1C369.3,97.7,369.5,97.7,369.5,97.2z"/>
	<path class="st0" d="M399,25.1c0.4,0,0.4,0.2,0,0.5C398.7,26,398.7,25.8,399,25.1z M401,31.7c0-0.5,0-1.2-0.1-1.9
		c-0.1-0.7,0-1.5,0.1-2.2c0.9,0.7,1.2,0.7,0.8-0.1c-0.4-0.8-0.5-1.6-0.5-2.3c-0.9,0-1.3,0.3-1.1,0.8c-0.4-0.4-0.5-0.8-0.5-1.4
		c0-0.5-0.2-0.8-0.5-0.8c0.7-0.4,1.8-0.8,3.3-1.2c1.5-0.5,2.9-0.7,4.4-0.8s2.9,0.1,4.2,0.5c1.4,0.5,2.5,1.4,3.4,2.9
		c-0.2,0.2-0.4,0.3-0.7,0.4s-0.4,0.4-0.4,1c-0.2,0.4-0.1,0.6,0.1,0.7c0.3,0.1,0.4,0.2,0.4,0.4c-0.4,3.1-0.2,6.2,0.5,9.2
		c0.7,3,1.1,5.8,1.1,8.3c-0.4,2.7-0.4,5.4-0.1,8.1s0.6,5,1,7c0.7,5.1,1.1,10.5,1.2,16.3s0.8,11.1,2,16c-0.2,0-0.3,0.3-0.3,0.8
		c0.2,0,0.3-0.3,0.3-0.8c0.4,0,0.4,0.2,0.1,0.7c-0.3,0.5-0.2,0.5,0.1,0.1c0.4-0.9,0.8-1.5,1.4-1.8s0.9-0.9,1.1-1.8
		c-0.2,0-0.3,0.1-0.4,0.4c-0.1,0.3-0.3,0.4-0.7,0.4c0.7-0.7,1.3-1.5,1.6-2.2c0.4-0.7,0.7-1.6,1.1-2.5c-0.4,0-0.5-0.2-0.5-0.7
		c0-0.4,0.3-0.5,0.8-0.1c0.2-0.6,0.3-1.1,0.3-1.6s0.1-1.1,0.3-1.6c0,0.7,0.2,1.1,0.5,1.1c0.4-1.5,0.8-2.7,1.4-3.8
		c0.5-1.1,0.7-2.4,0.5-3.8c0.2,0,0.4-0.1,0.5-0.3l0.3,0.3c0-0.2,0-0.2-0.1-0.1c-0.1,0.1-0.1,0.1-0.1-0.1c-0.4-0.2-0.5-0.4-0.3-0.6
		c0.2-0.2,0.3-0.4,0.3-0.8c0.2,0,0.3,0.3,0.3,0.8c0.9-1.3,1.6-2.7,2-4.2c0.5-1.6,1.1-2.8,2-3.7c0-0.2,0-0.3-0.1-0.4
		c-0.1-0.1-0.1-0.3-0.1-0.7c1.6-2.9,3.2-6,4.6-9.2s2.9-6.4,4.4-9.7c0.4,0,0.6,0,0.7-0.1c0.1-0.1,0.3-0.1,0.7-0.1
		c-0.2-0.4-0.3-0.9-0.3-1.6c0.4,0,0.6-0.1,0.7-0.4c0.1-0.3,0.3-0.3,0.7-0.1c0-0.5-0.2-0.7-0.5-0.5s-0.5,0.2-0.5,0
		c0-0.7,0.1-1,0.3-0.8s0.5,0.3,1.1,0.3c0.4-1.5,1-3,1.9-4.7c0.9-1.6,1.5-3.3,1.9-4.9c0.5,0,0.8,0.2,0.8,0.5c0.4-0.7,0.8-1.4,1.2-1.9
		c0.5-0.5,0.7-1.3,0.7-2.2c0.2-0.4,0.3-0.5,0.3-0.3s0.2,0.4,0.5,0.5c0.5-0.7,0.8-1.5,0.8-2.2c0-0.7,0.2-1.4,0.5-1.9
		c0.2,0,0.3,0.3,0.3,0.8c0.5,0,0.8-0.5,0.8-1.4c0.4,0,0.5-0.1,0.5-0.3c-0.4-0.4-0.5-0.3-0.5,0.3c0-0.9,0.6-1.9,1.9-2.9
		c1.3-1,1.8-2.1,1.6-3.4c0.2-0.4,0.5-0.5,1.1-0.3c-0.4-0.4-0.5-0.8-0.3-1.2c0.2-0.5,0.5-1,0.8-1.5c0.7,0.4,0.9,0.7,0.4,1
		c-0.5,0.3-0.7,0.7-0.7,1.2c0.4,0,0.8-0.4,1.4-1.2s0.4-1.2-0.5-1.2c0.5-0.2,0.9-0.6,1.1-1.4c0.5-0.2,0.7,0,0.4,0.4
		c-0.3,0.5-0.2,0.7,0.1,0.7c0.4-0.4,0.5-0.8,0.5-1.2s0.2-0.8,0.5-1c0.4-0.4,0.5-0.4,0.4,0c-0.1,0.4,0,0.6,0.1,0.6
		c0.4-0.2,0.5-0.4,0.3-0.8c-0.2-0.4-0.1-0.7,0.3-1.1c1.5-0.7,3.1-1.6,4.9-2.7c1.8,0,3.3,0.2,4.5,0.7c1.2,0.5,2.4,1.1,3.7,1.8
		c0,1.3,0.5,2,1.6,2.2c-0.4,2.7-1.1,4.9-2.2,6.6c-1.1,1.6-2.3,3.3-3.6,4.9c0.2,0.2,0.3,0.6,0.3,1.4c-3.3,3.6-6.1,7.7-8.4,12
		c-2.3,4.4-4.7,8.6-7.2,12.6c-3.6,6.9-7,14.2-10.1,21.6c-3.1,7.5-6.3,15.1-9.6,22.7c-1.3,3.1-2.6,6-4,8.6c-1.4,2.7-3.6,4.7-6.7,6.2
		c-0.7,0.4-1.1,0.6-1.1,0.8c-1.1,0.4-1.9,0.6-2.3,0.6s-1,0.1-1.8,0.3c-0.5-0.6-1.2-0.6-1.9-0.3c-0.7-0.4-1.4-0.6-1.9-0.8
		c-0.5-0.2-1.4-0.2-2.5,0c0-0.6-0.5-0.7-1.6-0.6c0-0.9-0.4-1.2-1.1-0.8c-1.1-0.6-2-1.2-2.9-2.1c-0.8-0.8-2-1.3-3.4-1.5
		c0.2-0.4,0.1-0.6-0.3-0.7c-0.4-0.1-0.4-0.3,0-0.7c0.4-0.2,0.5-0.1,0.4,0.3c-0.1,0.4,0,0.6,0.4,0.6c-0.2-0.9-0.5-2.1-0.8-3.6
		c-0.4-1.5-0.5-3-0.5-4.7c0-0.2,0-0.2-0.1,0c-0.1,0.2-0.3,0.2-0.7,0c0-0.4,0.1-0.6,0.3-0.6s0.3-0.2,0.3-0.6
		c-0.9-8.9-1.7-17.8-2.5-26.6c-0.7-8.8-1.1-18-1.1-27.7c0-0.4-0.2-0.5-0.5-0.4c-0.4,0.1-0.5,0-0.5-0.4c0.7-0.9,1.1-2.5,1.2-4.8
		C401.5,34.2,401.3,32.6,401,31.7z M399.9,28.9c0.2,0,0.3,0.5,0.3,1.4c-0.4,0-0.5-0.2-0.4-0.5C399.8,29.4,399.9,29.1,399.9,28.9z
		 M400.1,38c0.4-0.5,0.6-0.6,0.7-0.3s0,0.6-0.1,0.8c-0.5,0-0.7-0.1-0.4-0.3C400.5,38.1,400.5,38,400.1,38z M400.7,26.1
		c0,0.5,0,0.9,0,1.2c-0.4,0.2-0.5,0.1-0.5-0.3s0-0.7,0-1.1C400.5,25.6,400.7,25.6,400.7,26.1z M400.1,44c0-0.2,0.1-0.3,0.3-0.3h0.3
		l-0.3,0.3H400.1z M400.1,45.1c0.4-0.4,0.5-0.2,0.3,0.4C400.2,46.1,400.1,46,400.1,45.1z M400.1,46.7c0.4-0.5,0.5-0.5,0.5,0
		S400.5,47.3,400.1,46.7z M401.1,33.3c-0.1,0.7-0.2,1.4-0.4,1.9c-0.4-0.5-0.5-1.2-0.3-1.9c0.2-0.7,0.4-1.3,0.5-1.6
		C401.1,32,401.2,32.6,401.1,33.3z M401.2,61.8c0.4-0.4,0.5-0.2,0.3,0.4C401.3,62.8,401.2,62.7,401.2,61.8z M401.6,48.1
		c0.5,0,0.4-0.3-0.1-0.8C401.1,47.8,401.2,48.1,401.6,48.1z M401.8,40.7c0-0.4,0.1-0.9,0.3-1.5c0.2-0.6,0-1-0.5-1
		c0,0.4,0,0.9-0.1,1.5C401.3,40.4,401.4,40.7,401.8,40.7z M401.5,51.4c0,0.4,0.1,0.5,0.3,0.5C401.8,51.6,401.7,51.4,401.5,51.4z
		 M402.3,53.8c0-0.2,0-0.4,0-0.7s-0.3-0.3-0.8-0.1C401.5,53.6,401.8,53.8,402.3,53.8z M401.8,69.6c0,0.6-0.1,0.7-0.3,0.1
		C401.7,69,401.8,68.9,401.8,69.6z M401.8,56.9c0.5,0.2,0.8,0.1,0.8-0.3s-0.3-0.5-0.8-0.3V56.9z M402.3,58.5h0.5V58h-0.5V58.5z
		 M402.6,61.2c0-0.2,0.1-0.3,0.3-0.3c0-0.7-0.2-0.9-0.5-0.5C402.3,61,402.4,61.2,402.6,61.2z M402.6,76.7c0,0.5-0.1,0.4-0.3-0.1
		C402.5,76.2,402.6,76.2,402.6,76.7z M402.9,63.2c0-0.2,0-0.5,0-1.1c0-0.5-0.1-0.6-0.3-0.3C402.6,63.1,402.7,63.5,402.9,63.2z
		 M402.6,81.2h0.3v0.3h-0.3V81.2z M403.5,70.4c-0.1-0.3,0-0.5,0.4-0.7h-1.1v1.1C403.4,70.8,403.6,70.7,403.5,70.4z M403.4,76.3
		c0.4-0.7,0.5-1.6,0.5-2.5c0-0.9-0.4-1.6-1.1-1.9c0.4,0.6,0.5,1.2,0.3,2.1C403,74.8,403,75.6,403.4,76.3z M402.9,85.6
		c0.2-0.6,0.2-0.4,0.1,0.3C402.9,86.6,402.9,86.5,402.9,85.6z M404.2,82.9c0-0.7,0-1.3-0.1-1.6c-0.1-0.4-0.1-0.7-0.1-1.1
		C403.2,81.6,403.3,82.5,404.2,82.9z M404.2,103.5c0,0.5-0.1,0.5-0.3,0.1C404.1,103.1,404.2,103.1,404.2,103.5z M404.5,85.9
		c0-0.4,0-0.9,0.1-1.5c0.1-0.6,0-0.8-0.4-0.4c0,0.4,0,0.7,0,1.1C404.2,85.4,404.3,85.7,404.5,85.9z M404.2,88.3
		c0.2,0.6,0.3,0.6,0.3,0.1C404.5,88,404.4,88,404.2,88.3z M404.2,96c0.2-0.6,0.3-0.6,0.4,0C404.7,96.6,404.6,96.6,404.2,96z
		 M404.5,90c0.5,0.4,0.8,0.3,0.8-0.3c0-0.6-0.3-0.6-0.8-0.3V90z M404.8,100.4c-0.2,0.7-0.3,0.6-0.3-0.6
		C404.9,99.5,405,99.7,404.8,100.4z M405.1,93.3c0-0.2,0.1-0.4,0.3-0.6c0.2-0.2,0.1-0.4-0.3-0.6c0,0.2-0.1,0.4-0.3,0.7
		C404.6,93.1,404.7,93.3,405.1,93.3z M404.8,87.2c0.2,0.4,0.3,0.3,0.3-0.1C405.1,86.7,405,86.7,404.8,87.2z M404.8,92.2
		c0.2,0,0.2-0.1,0.1-0.3C404.8,91.7,404.8,91.8,404.8,92.2z M405.1,93.8c-0.2,0.9-0.2,1-0.1,0.3C405,93.4,405.1,93.3,405.1,93.8z
		 M405.6,96c0.2,0.4,0.3,0.3,0.4-0.1C406.1,95.4,406,95.5,405.6,96z M406.1,99c0-0.2,0-0.5,0-1c0-0.4-0.2-0.7-0.5-0.7
		C405.6,98.5,405.8,99,406.1,99z M405.9,86.2c0.2,0,0.3,0.1,0.3,0.1s0.2,0.1,0.5,0.1c0-0.2-0.2-0.4-0.5-0.8c0,0.2,0,0.3-0.1,0.3
		C405.9,85.9,405.9,86,405.9,86.2z M420.7,90c0.4,0.4,0.4,0.7,0.1,1.1c-0.3,0.4-0.4,0.7-0.4,1.1c-0.4-0.4-0.4-0.7-0.1-1.1
		C420.5,90.7,420.7,90.3,420.7,90z M420.7,93.8c0.2,0,0.3-0.3,0.3-0.8C420.8,93,420.7,93.3,420.7,93.8z M422,86.7
		c0-0.2,0.1-0.3,0.3-0.3s0.3,0.1,0.3,0.3c-0.2,0.4-0.3,0.5-0.3,0.3C422.3,86.8,422.2,86.7,422,86.7z M424,80.7
		c0.4,0.4,0.3,1.2-0.3,2.5c-0.5,1.3-1,2.2-1.4,2.7c0.2-0.9,0.5-1.7,1-2.5C423.7,82.7,424,81.8,424,80.7z M424.8,79
		c0.4-0.6,0.5-0.6,0.5-0.1C425.3,79.4,425.1,79.4,424.8,79z M425.3,81.5v0.3h-0.5C425,81.6,425.1,81.5,425.3,81.5z M425.3,81.5
		c-0.4-0.4-0.4-0.6-0.1-0.8s0.3-0.6,0.1-1.1c0.4,0.2,0.5,0.5,0.3,0.8C425.4,80.8,425.3,81.1,425.3,81.5z M428,79.6
		c0-0.6-0.1-0.6-0.3,0C428,80.1,428,80.1,428,79.6z M430.2,66.4c0.2-0.6,0.3-0.6,0.3,0C430.5,67,430.4,67,430.2,66.4z M430.5,65.3
		c0.2-0.2,0.4-0.3,0.5-0.3C431.1,65.3,430.9,65.3,430.5,65.3z M431.9,69.7c0-0.2,0-0.2,0.1-0.1c0.1,0.1,0.1,0.1,0.1-0.1
		C432,69.4,431.9,69.6,431.9,69.7z M433,61.8c0.4,0.5,0.4,0.7,0,0.4C432.6,61.9,432.6,61.8,433,61.8z M433,61.8
		c0-0.2,0.1-0.3,0.3-0.3C433.4,61.5,433.4,61.6,433,61.8z M434.1,59.9c0,0.2,0,0.5,0,0.8c0,0.4-0.2,0.5-0.5,0.3
		c0-0.5,0.1-0.9,0.3-1.1H434.1z M433.8,65.5c0-0.4-0.1-0.5-0.3-0.1C433.7,65.9,433.8,65.9,433.8,65.5z M434.1,59.9
		c-0.2-0.5-0.1-0.7,0.1-0.4S434.4,59.9,434.1,59.9z M434.4,63.2c-0.2,0.9-0.2,1-0.1,0.3C434.3,62.7,434.4,62.6,434.4,63.2z
		 M435.2,61.5c-0.4,0.7-0.3,0.9,0.1,0.5C435.8,61.7,435.7,61.5,435.2,61.5z M435.5,56.6l0.3-0.3L435.5,56.6z M435.7,61.2V61
		c0-0.5-0.1-0.7-0.3-0.5C435.5,61,435.5,61.2,435.7,61.2z M436.3,53.8c0.4,0.4,0.5,0.8,0.4,1.4s-0.4,0.6-1,0.3
		C436.1,55.1,436.3,54.6,436.3,53.8z M437.1,57.7h0.3v-0.8h-0.3V57.7z M437.6,55.2V56c0.4,0.2,0.6,0,0.7-0.4c0.1-0.5,0-0.6-0.4-0.4
		C437.9,55.4,437.8,55.4,437.6,55.2z M439,48.9c0.2-0.4,0.3-0.3,0.3,0.1C439.3,49.5,439.2,49.5,439,48.9z M439.5,47.3
		c0.5-0.2,0.8-0.2,0.8,0c0,0.4,0,0.5-0.1,0.3C440.1,47.4,439.9,47.3,439.5,47.3z M441.2,43.5c-0.2,0.2-0.2,0.4-0.1,0.7
		s0,0.4-0.4,0.4C440.6,43.8,440.8,43.5,441.2,43.5z M440.9,44.8h0.8v0.5c-0.4,0-0.5,0.1-0.5,0.3h-0.3v-0.5L440.9,44.8L440.9,44.8z
		 M442.3,41.8l-0.3,0.5c-0.2,0-0.3-0.1-0.3-0.3s0.1-0.3,0.3-0.3L442.3,41.8L442.3,41.8z M442.3,41.8v-1.1
		C442.6,41.1,442.6,41.4,442.3,41.8z M445.9,36.9v0.3h-0.5v-0.3H445.9z M448.3,36.5c0-0.5-0.2-0.4-0.5,0.1
		C448.1,37,448.3,36.9,448.3,36.5z M450.8,27.8c0,0.5-0.2,0.5-0.5-0.3C450.6,27.2,450.8,27.3,450.8,27.8z M452.1,27.6h0.5V27h-0.5
		V27.6z M453.5,23.7c0,0.2-0.3,0.5-0.8,1.1c-0.4,0-0.4-0.2-0.1-0.5C452.8,23.9,453.1,23.7,453.5,23.7z M454.3,21h1.1
		c-0.2,0.4-0.3,0.7-0.4,1.1c-0.1,0.4-0.4,0.5-1,0.3C454.8,22.4,454.9,21.9,454.3,21z M455.4,25.1c0.4,0.4,0.5,0.3,0.5-0.1
		C456,24.5,455.8,24.6,455.4,25.1z M456.8,19.9c0.2-0.7,0.3-0.8,0.3-0.3C457.1,20.2,457,20.3,456.8,19.9z M463.9,13.3
		c0-0.4,0.1-0.6,0.4-0.7s0.4-0.3,0.4-0.7c-0.4,0-0.7,0.1-1,0.4C463.5,12.6,463.5,13,463.9,13.3z"/>
	<path class="st0" d="M461.5,88.3c-0.4-0.2-0.4-0.4-0.1-0.8C461.6,87.2,461.6,87.4,461.5,88.3z M532.1,38v-0.5l-0.3,0.3
		C531.8,37.9,531.9,38,532.1,38c-0.9,2.6-1.7,5.2-2.3,7.9c-0.6,2.7-1.4,5.3-2.3,7.7c0,3.7-0.1,7.1-0.4,10.4
		c-0.3,3.3-0.4,6.8-0.4,10.7c0.2,1.8,0.4,3.7,0.7,5.8c0.3,2,0.6,4,1,5.9c0.4,1.9,0.9,3.7,1.5,5.5c0.6,1.7,1.6,3.2,2.9,4.5
		c5.5-2.6,9.9-6,13.4-10.3c3.5-4.3,7.1-8.5,11-12.7c-0.2-0.4-0.1-0.6,0.1-0.8c0.3-0.2,0.4-0.6,0.4-1.1c0.4,0,0.5-0.2,0.5-0.6
		c0-0.4,0.3-0.4,0.8,0c2.2-3.7,4.5-7,6.8-10.1c2.4-3.1,4.7-6.3,6.8-9.6c0-0.4-0.1-0.5-0.3-0.5s-0.2-0.1,0-0.3c1.5,0.4,2-0.5,1.6-2.5
		c0.4,0,0.6-0.1,0.8-0.3s0.4-0.1,0.5,0.3c0-1.3,0.4-2.2,1.1-2.7c0.7-0.5,1.3-1,1.6-1.4c0.9-1.3,2-2.7,3.2-4.4
		c1.2-1.6,2.4-3.2,3.7-4.7c0.2,0.4,0.5,0.7,0.8,1.1c-0.2,0.9-0.3,1.6-0.4,2.2c-0.1,0.5,0,1.2,0.4,1.9c-0.4,1.1-0.8,2.2-1.4,3.4
		c-0.5,1.2-1.2,2.2-1.9,3.2c0.4,0.9,0.3,1.7-0.1,2.5c-0.5,0.7-1,1.2-1.8,1.4c0.2,0.5,0.4,0.7,0.5,0.4c0.2-0.3,0.5-0.4,0.8-0.4
		c0,0.7-0.2,1.1-0.7,1.2c-0.5,0.1-0.7,0.3-0.7,0.7c-0.2,0.4-0.4,0.5-0.5,0.5s-0.3,0.1-0.3,0.3c0.9,0.4,1.2,0.1,0.8-0.8
		c0.5,0.4,0.9,0.3,1-0.3c0.1-0.5,0.3-0.6,0.7-0.3c-0.4,0.9-0.9,1.8-1.5,2.6s-1.1,1.7-1.5,2.6c0.5-0.4,1-0.8,1.4-1.4
		c0.4-0.5,0.8-1.1,1.4-1.6c-0.4,0.7-0.8,1.6-1.2,2.6c-0.5,1-1,1.7-1.5,2c0,0.2,0.1,0.3,0.3,0.3s0.4,0.2,0.5,0.5
		c-0.5,0.4-0.9,0.9-1.1,1.6c-0.2,0.7-0.5,1.5-0.8,2.2h-0.8c-0.2,0.4-0.2,0.6,0,0.7s0.3,0.4,0.3,1c-0.9,0.9-1.5,1.8-1.9,2.7
		c-0.4,0.9-0.9,1.7-1.6,2.5c-0.4,2.9-1.6,5.7-3.8,8.2c-2.2,2.6-3.8,5.2-4.9,7.9c-1.8,2-3.7,4.1-5.6,6.2c-1.9,2.1-4,4-6.3,5.8
		c-2.3,1.7-4.8,3.2-7.7,4.4c-2.8,1.2-6.1,1.8-9.7,1.8c-2.2,0.9-4.1,0.8-5.6-0.3s-3.2-2.1-4.8-3c-1.5-0.9-2.9-1.7-4.4-2.3
		s-2.7-1.4-3.6-2.3c-1.8-1.6-3.2-3.6-4.2-5.9c-1-2.3-1.7-4.6-2-7c-0.2-0.4-0.3-0.7-0.3-1.1c0-0.4-0.1-0.7-0.3-1.1
		c0-0.9-0.1-1.8-0.3-2.7c-0.2-0.9-0.1-1.6,0.3-1.9c-0.4-0.4-0.6-0.7-0.7-1c-0.1-0.3-0.2-0.5-0.4-0.7c0-0.4,0-0.7,0.1-1.1
		c0.1-0.4,0-0.7-0.1-1.1c-0.5,0.6-1,1.4-1.4,2.5c-0.2,0-0.3,0-0.3-0.1c0-0.1-0.1-0.1-0.3-0.1c-3.3,5.1-6.7,10.1-10.1,15.1
		s-7.7,9.2-12.6,12.9c-1.1,0.2-2.1,0.5-3,0.8c-0.9,0.4-2,0.6-3.3,0.8c-4.2-0.2-7.4-1.4-9.7-3.6c-2.3-2.2-4.6-4.5-7-6.8
		c0.4-0.4,0.3-0.9-0.3-1.5c-0.5-0.6-0.5-1.1,0.3-1.5c-0.9-0.9-1.1-1.8-0.5-2.7c0.4-0.9,0.5-1.9,0.4-2.9s-0.1-2.2-0.1-3.7L462,82
		c0,0.2,0.1,0.3,0.3,0.3c0-0.7-0.1-1.1-0.3-1.1c-0.2-0.4-0.2-0.6-0.1-0.8s0.3-0.1,0.7,0.3c0-0.6-0.1-0.8-0.3-0.8l0.8-0.6
		c-0.9-1.8-0.8-3.7,0.4-5.6c1.2-1.9,1.7-3.9,1.5-5.9v0.8c0.4-0.2,0.6-0.6,0.8-1.1c0.2-0.6,0-0.9-0.5-1.1c0-0.7,0.1-0.9,0.3-0.6
		c0.2,0.4,0.5,0.4,0.8,0c0-1.1,0.2-2,0.5-2.6s0.4-1.4,0-2.3c0.2,0.4,0.4,0.5,0.5,0.3c0.4-1.5,1-3,1.9-4.8c0.9-1.7,1.5-3.5,1.9-5.3
		c0.4,0.2,0.4,0.4,0,0.7c-0.4,0.3-0.4,0.6,0,1c0.9-1.5,1.6-2.8,2-4.1c0.5-1.3,1.1-2.5,2-3.8c0.5-0.4,0.9-0.8,1-1.4
		c0.1-0.5,0.3-1.1,0.7-1.6c-0.2,0,0.1,0.2,0.8,0.5c0.4-1.5,1.1-2.7,2.2-3.8h0.3v-0.3c0.7-1.5,1.7-2.6,3-3.6c0.7-1.3,1.5-2.4,2.3-3.3
		c0.8-0.9,1.6-1.8,2.3-2.7c0-0.2-0.2-0.3-0.5-0.4s-0.5-0.3-0.3-0.7c0.7,0.4,1.5,0.5,2.3,0.5s1.4-0.4,1.8-1.1
		c3.6-0.9,7.2-1.1,10.7-0.7c3.5,0.5,6,2,7.7,4.5c-0.2,0.4-0.5,0.5-1.1,0.5c0.4,0.9,0.6,2,0.7,3.2c0.1,1.2,0.3,2.5,0.7,4
		c0.7-0.4,1.2-0.8,1.5-1.4c0.3-0.5,0.6-1.1,1-1.6c0.4,0.4,0.3,0.8-0.1,1.2c-0.5,0.5-0.7,1-0.7,1.5c0.7-0.9,1.4-1.8,2-2.7
		c0.6-0.9,1.1-2.1,1.5-3.6c0.4,0,0.7-0.2,1.1-0.5c0.4-0.4,0.4-0.7,0-1.1c0.4-1.6,1-3.1,2-4.5s1.6-2.8,1.8-4.2c2.4-0.4,4.9-0.4,7.7,0
		c2.7,0.4,5.1,1,7.1,1.9c1.1,2,1.1,4.1,0.1,6.2s-1.9,4-2.6,5.6C532.9,35.8,532.8,36.7,532.1,38z M462,81.2c0,0.6-0.1,0.7-0.4,0.4
		C461.3,81.4,461.5,81.2,462,81.2z M462.3,79.8c0,0.2-0.1,0.3-0.3,0.3C461.8,80.1,461.9,80,462.3,79.8z M463.1,76.6
		c0.2,0.7,0.3,0.8,0.3,0.3C463.4,76.3,463.3,76.2,463.1,76.6z M464.2,75.5c0-0.6-0.1-0.6-0.3-0.3C464.1,75.9,464.2,76,464.2,75.5z
		 M465.3,66.4c0.2,0.9,0.1,1.2-0.1,0.8C464.9,66.9,464.9,66.6,465.3,66.4z M466.4,63.2c0.2-0.5,0.3-0.5,0.3,0
		C466.6,63.7,466.6,63.7,466.4,63.2z M468.8,56.3l-0.3,0.3L468.8,56.3z M468.8,59.6c0.5,0,0.7-0.1,0.4-0.4
		C469,58.9,468.8,59,468.8,59.6z M469.5,58.2c0.3,0.2,0.4,0.1,0.4-0.3C469.4,58,469.2,58,469.5,58.2z M471.3,54.7
		c0.2,0.4,0.3,0.3,0.3-0.1C471.6,54.1,471.5,54.1,471.3,54.7z M472.1,49.6c0,0.5-0.1,0.5-0.3,0.1C472,49.2,472.1,49.2,472.1,49.6z
		 M472.4,52.8c-0.2-0.4-0.1-0.6,0.1-0.7c0.3-0.1,0.4-0.2,0.4-0.4c-0.4-0.2-0.6-0.1-0.8,0.1S472,52.4,472.4,52.8z M473,50.6
		c-0.4,0.5-0.4,0.6,0,0.1C473.3,50.2,473.3,50.2,473,50.6z M481.7,64.2c-3.8,8.2-6.4,17.5-7.7,27.9c2-1.1,3.6-2.3,4.8-3.7
		c1.2-1.4,2.2-3.1,3.1-5.1c1.3-0.9,2.3-2.1,3-3.6s1.6-2.7,2.7-3.8c0,0.4,0.1,0.4,0.3,0.1c0.2-0.3,0.1-0.3-0.3-0.1
		c0.9-1.5,1.8-2.9,2.7-4.4c0.9-1.5,1.8-2.7,2.7-3.8c0,0.7,0.1,1,0.4,0.7c0.3-0.3,0.1-0.5-0.4-0.7c0.7-2,1.6-3.5,2.7-4.4
		c0,0.5-0.2,1-0.7,1.4c-0.5,0.4-0.5,0.7-0.1,1.1c0.2-0.4,0.5-0.9,1-1.6c0.5-0.7,0.4-1-0.1-0.8c0.4-0.9,0.9-2,1.6-3.3
		c0.7-1.3,1.5-2.3,2.2-3c0,0.7-0.2,1.2-0.7,1.5c-0.5,0.3-0.7,0.8-0.7,1.5c0.7-0.4,1.3-0.9,1.6-1.6c0.4-0.7,0.7-1.5,1.1-2.5
		c0.2,0,0.3-0.1,0.4-0.4s0.2-0.5,0.4-0.7c-0.5,0-0.8,0.4-0.8,1.1c-0.4,0-0.6,0.2-0.7,0.7c-0.1,0.5-0.2,0.5-0.4,0.1
		c0.9-2,2-3.9,3.3-5.8c1.3-1.8,2.4-3.8,3.3-6c-0.4-0.9-0.8-1.7-1.2-2.3c-0.5-0.6-0.9-1.3-1.2-2c0-0.4-0.3-0.5-0.8-0.5
		c0-0.7-0.1-1.1-0.3-1.1c-0.5-0.9-1-2-1.4-3.3c-0.4-1.3-1.2-2.1-2.5-2.5c-1.1,0.9-2.1,2-3,3.4c-0.9,1.4-1.5,2.7-1.9,4
		C489.7,48.2,485.5,56,481.7,64.2z M475.7,42.3c0.5,0.4,0.6,0.6,0.3,0.7c-0.4,0.1-0.5,0.3-0.3,0.7c-0.4,0-0.5-0.1-0.3-0.4
		C475.6,43,475.7,42.7,475.7,42.3z M478.1,39.9C478.5,39.5,478.5,39.5,478.1,39.9C477.8,40.2,477.8,40.2,478.1,39.9z M480.3,38.2
		v0.3h-0.3c-0.2,0-0.3-0.1-0.3-0.3C479.8,38.1,480,38.1,480.3,38.2z M480.6,35.8c0,0.4,0,0.5-0.1,0.5
		C480.4,36.3,480.4,36.2,480.6,35.8z M480.6,35.8h0.3c0.2,0,0.3,0,0.3-0.1c0-0.1,0.1-0.1,0.3-0.1v0.3L480.6,35.8L480.6,35.8z
		 M481.4,35.2c0.2-0.2,0.3-0.4,0.3-0.7s0.2-0.4,0.5-0.4C482.3,34.9,482,35.2,481.4,35.2z M484.7,31.7c0,0.4-0.2,0.5-0.5,0.3
		C483.8,31.8,484,31.7,484.7,31.7z M484.7,81.5c-0.5,0-0.7,0.1-0.4,0.4C484.6,82.2,484.7,82.1,484.7,81.5c0.4,0,0.4-0.1,0.1-0.3
		C484.6,81,484.5,81.1,484.7,81.5z M484.7,31.4c0-0.4,0.1-0.6,0.3-0.7s0.3-0.2,0.3-0.4c0.4,0.2,0.4,0.4,0.1,0.7
		S484.9,31.4,484.7,31.4z M486.4,29.2c0.4-0.2,0.4-0.1,0,0.3C486,29.9,486,29.8,486.4,29.2z M488.3,75.2c0.2,0.6,0.3,0.6,0.4,0.1
		C488.8,74.9,488.6,74.8,488.3,75.2z M494.3,67.5V67h-0.5v0.6H494.3z M494.3,40.7c0-0.2,0-0.3,0.1-0.3c0.1,0,0.1,0.1,0.1,0.3H494.3z
		 M494.6,66.2c0.2,0.7,0.3,0.8,0.3,0.1C494.9,65.7,494.8,65.6,494.6,66.2z M496.5,63.2c0.5,0,1-0.5,1.4-1.4c-0.5,0-0.9,0.2-1,0.5
		C496.8,62.7,496.7,63,496.5,63.2z M501.7,54.4c0.7-0.4,1.4-1,2-1.9c0.6-0.9,0.9-1.7,0.7-2.5C503.5,51.7,502.6,53.1,501.7,54.4z
		 M503.1,39.1c-0.2,0.5-0.3,0.6-0.4,0.1C502.6,38.8,502.7,38.7,503.1,39.1z M503.3,40.2c0,0.4,0.3,0.5,0.8,0.5
		c-0.4,0.4-0.3,0.7,0.1,1.1c0.5,0.4,0.5,0.7,0.1,1.1c0-0.4-0.2-0.8-0.7-1.4C503.3,41,503.1,40.5,503.3,40.2z M504.7,43.5
		c0-0.2,0.1-0.3,0.3-0.3s0.3,0.1,0.3,0.3H504.7z M506.4,43.5c0-1.1-0.5-1.8-1.4-2.2C505,41.8,505.4,42.5,506.4,43.5z M505.2,44h0.3
		c0.2,0,0.3-0.1,0.3-0.3l-0.3,0.3H505.2z M505.2,50.3c0.4,0.5,0.5,0.6,0.5,0.1C505.8,50,505.6,49.9,505.2,50.3z M506.4,47.3
		c-0.4,0-0.7,0.2-1,0.7c-0.3,0.5-0.1,0.8,0.4,1c-0.4-0.4-0.4-0.6,0-0.7C506.2,48.2,506.4,47.8,506.4,47.3h0.3c0-0.2,0.1-0.4,0.4-0.7
		s0.2-0.6-0.1-1c-0.2,0.4-0.3,0.6-0.4,0.8C506.4,46.6,506.4,46.9,506.4,47.3z M506.6,43.7c0.2,0.7,0.3,0.8,0.3,0.3
		C506.9,43.5,506.8,43.4,506.6,43.7z M509.6,79.4c0,0.6-0.1,0.6-0.3-0.1C509.5,78.8,509.6,78.8,509.6,79.4z M510.2,84.5
		c0.5,0.2,0.7,0.5,0.5,0.8c-0.2,0.4-0.5,0.6-1.1,0.6c0.2-0.2,0.3-0.4,0.3-0.6C509.9,85.2,510,84.9,510.2,84.5z M511,38.5v0.5
		c0.2,0.4,0.3,0.3,0.4-0.1C511.5,38.5,511.4,38.3,511,38.5z M511.8,81.8l-0.3,0.6h-0.3C511.6,82.3,511.8,82.1,511.8,81.8z
		 M512.4,89.7c-0.5,0-0.7-0.2-0.4-0.6C512.2,88.8,512.4,89,512.4,89.7z M512.4,39.1c0,0.4-0.1,0.5-0.3,0.3
		C511.9,39.2,512,39.1,512.4,39.1z M512.9,38.5c0-0.2,0-0.3,0.1-0.4c0.1-0.1,0-0.3-0.1-0.7c0,0.4-0.1,0.6-0.3,0.7
		C512.5,38.2,512.5,38.3,512.9,38.5z M513.6,36.6c0.5-0.4,0.4-0.4-0.1,0C513.1,37,513.1,37,513.6,36.6z M516.2,30.3
		c-0.2,0.4-0.4,0.6-0.7,0.7c-0.3,0.1-0.4,0.4-0.4,1c-0.4,0.4-0.6,0.8-0.8,1.4s-0.5,1.1-0.8,1.6c-0.4-0.9-0.2-1.7,0.5-2.5
		s1.3-1.5,1.6-2.5c0.2,0,0.3,0,0.3,0.1C515.9,30.3,516,30.3,516.2,30.3z M514.8,34.7c0.2,0,0.2-0.1,0.1-0.3
		C514.9,34.2,514.8,34.3,514.8,34.7z M517.6,28.7c-0.2,0.2-0.5,0.3-1.1,0.3c0.2,0.2,0.2,0.5,0,0.8c-0.2,0.4-0.1,0.5,0.3,0.5
		c0-0.4,0.1-0.6,0.4-0.8C517.4,29.3,517.6,29,517.6,28.7h0.3v-0.5C517.7,28.1,517.6,28.3,517.6,28.7z M518.1,27.3
		c0.4,0,0.4-0.1,0.1-0.3C518,26.8,517.9,26.9,518.1,27.3z M572.3,71.4h0.3H572.3z M575.9,65.8c0-0.4-0.1-0.4-0.3,0.1
		C575.8,66.3,575.9,66.2,575.9,65.8z M578.3,58.2h-0.5h-0.3c-0.2,0.7,0,1,0.5,0.7C578.6,58.6,578.7,58.4,578.3,58.2z M578.1,63.2
		c0.2,0,0.3,0.2,0.3,0.5c-0.2,0-0.4,0-0.5-0.1C577.6,63.5,577.7,63.3,578.1,63.2z M579.2,53.8c0.4,0.5,0.5,0.6,0.5,0.1
		C579.7,53.5,579.5,53.5,579.2,53.8z M581.6,48.4c0.2,0.5,0.3,0.5,0.4,0C582.1,47.8,582,47.8,581.6,48.4z M582,47.5
		c-0.1-0.2-0.1-0.1-0.1,0.3C582.1,47.8,582.1,47.7,582,47.5z"/>
	<path class="st0" d="M567.9,49.5c0.2-0.4,0.3-0.3,0.3,0.3c0,0.5,0,1,0,1.4c-0.4,0.4-0.5,0.2-0.4-0.4
		C567.9,50.1,567.9,49.7,567.9,49.5z M567.9,51.7c0.2,0.2,0.3,0.6,0.3,1.4c-0.4,0.2-0.5,0.1-0.4-0.3C567.9,52.4,567.9,52,567.9,51.7
		z M587.9,87.8h-0.3c0,0.2,0,0.3,0.1,0.3C587.9,88.1,587.9,88,587.9,87.8c0.5,0,0.9-0.1,1-0.3c0.1-0.2,0.3-0.3,0.7-0.3
		c-0.5,0.9-1.4,1.7-2.5,2.3s-2,1.7-2.7,3.2c0.4-0.2,0.7-0.4,1.1-0.7c0.4-0.3,0.8-0.4,1.4-0.4c-0.4,0.4-0.7,0.7-1.1,1.1
		c-0.4,0.4-0.8,0.7-1.4,1.1c0.4,0.4,0.5,0.6,0.4,0.7c-0.1,0.1-0.2,0.4-0.4,1c-0.2,0-0.3,0.1-0.3,0.3s0,0.2,0.1,0.1
		c0.1-0.1,0.1-0.2,0.1-0.4c0.4,0.4,0.1,0.9-0.7,1.6c-0.8,0.7-1.2,1.6-1.2,2.5c0.5-0.4,0.8,0,0.7,1.1s0.1,1.9,0.7,2.5
		c2.2,0.2,4.2,0.1,6-0.4c1.8-0.4,3.5-1,5.1-1.6s3-1.3,4.2-1.9c1.3-0.6,2.5-1.1,3.6-1.5c0.5,0,0.8-0.1,0.8-0.3c2-1.3,3.9-2.7,5.6-4.2
		c1.7-1.6,3.4-3.2,5.1-5.1c0.4,0.4,0.5,0.5,0.5,0.3c0-0.2-0.2-0.3-0.5-0.3c0.4-0.7,0.8-1.1,1.4-1.1s0.8-0.4,0.8-1.4
		c0.2,0,0.3-0.3,0.3-0.8c-0.2,0-0.3,0.3-0.3,0.8c-0.7,0.2-0.9,0.1-0.4-0.4c0.5-0.4,0.7-0.9,0.7-1.2c0-0.4-0.2-0.4-0.7-0.3
		c-0.5,0.2-0.9,0.1-1.2-0.3c-2.7-1.1-5.6-2-8.5-2.6s-5.9-1.3-8.9-1.9c-3-0.6-5.9-1.4-8.8-2.2s-5.4-2-7.8-3.4
		c-1.5-1.1-2.7-2.3-3.8-3.6c-1.1-1.3-2.2-2.6-3.3-3.8c-0.5-2-1.4-3.8-2.6-5.5c-1.2-1.6-2-3.3-2.3-4.9c-0.4-0.2-0.4-0.3-0.1-0.3
		c0.3,0,0.4-0.1,0.4-0.3c-0.2-0.2-0.4-0.3-0.5-0.3c-0.2,0-0.3-0.3-0.3-0.8c0-0.2,0.2-0.2,0.5,0c-0.4-3.3,0-5.7,1.2-7.2
		c1.2-1.5,2.2-3.5,3.2-5.9c1.5-0.9,2.5-2,3.2-3.4c0.6-1.4,1.8-2.4,3.4-3.2c0,0.4-0.1,0.6-0.3,0.7s-0.3,0.3-0.3,0.7
		c0.7-0.2,1.3-0.7,1.6-1.6c0.4,0.4,0.5,0.3,0.5-0.1c0-0.5,0.2-0.7,0.5-0.7c0.4,0,0.6-0.2,0.7-0.5c0.1-0.4,0.2-0.6,0.4-0.8h0.5v-0.3
		c0.4,0,0.5-0.3,0.5-0.8v-0.3c0.4,0,0.5,0,0.3-0.1c-0.2-0.1-0.3,0-0.3,0.1v0.3c-0.4,0.4-0.5,0.6-0.5,0.8c-0.4,0-0.5,0.1-0.5,0.3
		c-0.4,0-0.5,0.1-0.5,0.4c0,0.3-0.2,0.6-0.5,1c-0.4,0-0.5-0.1-0.5-0.3v-0.3c2.5-2.7,5.3-5.3,8.2-7.7c2.9-2.4,5.9-4.7,9-7.1
		c0.2-0.2,0.3-0.5,0.3-1.1c1.1-0.4,2-0.9,2.7-1.5c0.7-0.6,1.5-1.1,2.5-1.5c0.4,0,0.5,0.1,0.4,0.4c-0.1,0.3-0.1,0.6-0.1,1
		c0.5-1.5,1.7-2.7,3.6-3.8c1.8-1.1,3.7-1.7,5.5-1.9c0,0.7-0.3,1-1,0.8s-1,0-1,0.6c1.1,0.4,2,0,2.7-1.1c0-0.4-0.3-0.6-1-0.6
		s-1-0.4-1-1.1c0-0.4,0.1-0.3,0.4,0.1c0.3,0.5,0.6,0.6,1,0.4c0.4,0,0.4-0.1,0.1-0.4c-0.3-0.3-0.3-0.6-0.1-1c0.2,0.2,0.5,0.3,1.1,0.4
		c0.5,0.1,0.9,0,1.1-0.4c1.6,0.6,3.6,1,5.9,1.2c2.3,0.3,4.5,0.7,6.7,1.4s4.1,1.6,5.8,2.9s2.5,3.3,2.7,6c-0.9,0.9-1.5,2.2-1.8,3.8
		s-0.9,3.1-1.8,4.4c-0.5,0.2-0.7,0.1-0.4-0.3s0.2-0.5-0.1-0.5s-0.5,0.4-0.5,1.1c-0.2,0-0.3-0.2-0.3-0.5c-0.4,0-0.5,0.2-0.4,0.5
		c0.1,0.4,0,0.7-0.1,1.1c-0.2,0-0.3-0.3-0.3-0.8c-0.4,0.2-0.5,0.5-0.5,0.8c0,0.4-0.2,0.6-0.5,0.8c-0.2-0.2-0.2-0.5-0.1-1
		c0.1-0.5,0-0.7-0.1-0.7c-0.4,0.5-0.6,0.9-0.8,1c-0.2,0.1-0.5,0.3-0.8,0.7c-0.2,0-0.3-0.3-0.3-0.8c-0.4,0-0.5,0.2-0.5,0.5
		c0,0.4-0.1,0.7-0.3,1.1c-0.4-0.4-0.7-0.6-1.1-0.8c-0.4-0.2-0.6,0.2-0.8,1.1c-0.4-1.5-0.4-2.8,0-4c0.4-1.2,0.5-2.5,0.3-4
		c-7.7,4-14.7,8.7-21.1,14.1c-6.4,5.4-12.4,11.1-18.1,17.1c-0.5,1.5-1.2,2.8-1.9,4c-0.7,1.2-1.5,2.5-2.5,4c0.2,0.9,0,1.9-0.5,3
		c1.3,0.9,3,1.7,5.1,2.3c2.1,0.6,4.1,1,5.9,1c7.1,1.6,13.7,3.7,19.7,6.2c6,2.5,11.1,6,15.3,10.5c0.9,1.5,1.8,2.8,2.6,4.1
		c0.8,1.3,1,2.9,0.4,4.9c-0.9,3.7-3.2,7-6.8,10c-3.7,3-7.1,5.1-10.4,6.2c-2.9,1.8-6.1,3.2-9.6,4c-3.5,0.8-7.3,1.4-11.5,1.8
		c-0.5-0.6-1.7-0.8-3.6-0.8c-4.2-0.9-7.3-2.8-9.5-5.8c-2.1-2.9-4.3-5.8-6.7-8.8c0.4-0.4,0.3-0.7-0.1-1c-0.5-0.3-0.9-0.7-1.2-1.2
		c0.4-0.4,0.7-0.4,1-0.1c0.3,0.3,0.5,0.5,0.7,0.7c0.2-0.4,0.4-0.8,0.7-1.4c0.3-0.6,0.2-1-0.1-1.4c2.2-2.6,4.6-4.9,7.1-7
		c2.5-2.1,5.5-3.9,8.8-5.3c0,0.6,0.2,1,0.5,1.4c0,0.6-0.2,0.9-0.5,1s-0.7,0.2-1.1,0.4c0.4,0.4,0.6,0.4,0.8,0.1
		c0.2-0.3,0.4-0.2,0.5,0.1c0,0.6-0.1,0.9-0.4,1C588.6,87.2,588.3,87.4,587.9,87.8z M568.5,47.1c0.2,0.1,0.1,0.1-0.3,0.1
		C568.2,47.1,568.3,47,568.5,47.1z M572.3,95.7c0.4,0,0.5,0.1,0.5,0.3l-0.3,0.3C572.8,96.3,572.7,96.1,572.3,95.7z M574.5,41.3
		c0.2,0,0.2-0.1,0.1-0.3C574.5,40.8,574.5,40.9,574.5,41.3z M575.5,40c0.5-0.1,0.5-0.2,0.1-0.4c-0.2,0.2-0.4,0.4-0.7,0.7
		s-0.1,0.4,0.4,0.4C575,40.3,575,40.1,575.5,40z M576.2,41.3l-0.3,0.3c-0.2,0-0.3,0.2-0.3,0.5c-0.5,0-0.7,0.1-0.4,0.4
		s0.4,0.1,0.4-0.4c0.2,0,0.3-0.2,0.3-0.5C576.1,41.5,576.2,41.4,576.2,41.3c0.2,0,0.2-0.1,0.1-0.3C576.2,40.8,576.2,40.9,576.2,41.3
		z M576.2,40.7c0.5,0,0.8-0.1,0.8-0.3s0.1-0.4,0.3-0.5c-0.4,0-0.6,0.1-0.7,0.3C576.5,40.3,576.3,40.5,576.2,40.7z M578.2,36.7
		c0.1-0.5,0-0.4-0.4,0.1C578,37.2,578.1,37.2,578.2,36.7z M579.4,88.1h0.3C579.7,88.2,579.6,88.2,579.4,88.1z M580.3,33.9
		c0,0.2-0.2,0.3-0.5,0.3c0-0.7,0.5-1.1,1.4-1.1c0,0.4-0.1,0.6-0.3,0.8C580.4,33.7,580.3,33.7,580.3,33.9z M580,87.8
		c0.2,0,0.1,0.1-0.3,0.3C579.7,87.9,579.8,87.8,580,87.8z M580.8,35.8c-0.5,0-0.7,0.1-0.4,0.4C580.7,36.5,580.8,36.3,580.8,35.8
		c1.5-1.1,2.7-2.2,3.8-3.3s2.2-2.3,3.3-3.6c-1.3,0.9-2.6,2-3.8,3.1C582.8,33.3,581.7,34.5,580.8,35.8z M582.9,101.8
		c0.1-0.4,0-0.6-0.1-0.6c-0.4,0.4-0.5,0.7-0.5,1.1C582.5,102.3,582.8,102.1,582.9,101.8z M584.1,84.8l-0.3,0.3L584.1,84.8z
		 M584.4,84.5c0.2-0.6,0.3-0.6,0.3,0C584.6,85.1,584.5,85.1,584.4,84.5z M585.5,29.2c0.2,0.5,0.3,0.6,0.3,0.1
		C585.7,28.9,585.6,28.9,585.5,29.2z M585.7,84c0,0.6-0.1,0.6-0.3,0.3C585.6,83.5,585.7,83.4,585.7,84z M587.4,82.9
		c-0.2,0.2-0.3,0.4-0.4,0.7c-0.1,0.3-0.4,0.4-1,0.4C586.2,83.2,586.7,82.9,587.4,82.9z M586.3,28.7c-0.4,0.5-0.3,0.6,0.1,0.1
		C586.9,28.4,586.8,28.3,586.3,28.7z M587.1,27.6c0.5,0.5,0.8,0.5,0.8-0.3C587.4,26.8,587.1,26.8,587.1,27.6z M589.3,25.9
		c-0.2,0-0.5,0.1-0.8,0.3c-0.4,0.2-0.4,0.5,0,0.8c0-0.4,0.2-0.5,0.5-0.4C589.4,26.7,589.5,26.5,589.3,25.9c0.5,0,0.7-0.1,0.4-0.3
		C589.4,25.5,589.3,25.6,589.3,25.9z M588.7,27.6c0,0.5-0.1,0.9-0.3,1.1c0.4-0.2,0.8-0.5,1.4-0.8c0.5-0.4,0.7-0.7,0.5-1.1
		C590,27.3,589.5,27.6,588.7,27.6z M589.3,101.5h0.3l-0.3,0.6V101.5z M590.9,24.3h-0.3v0.5v0.3c-0.4,0-0.5,0-0.3,0.1
		c0.2,0.1,0.3,0,0.3-0.1v-0.3C590.8,24.8,590.9,24.6,590.9,24.3c0.7,0,1.1-0.2,1.1-0.5C591.7,23.7,591.3,23.9,590.9,24.3z M592,25.6
		c-0.4,0-0.6,0.1-0.8,0.4s-0.4,0.5-0.5,0.7c0.5,0,0.9-0.1,1-0.4C591.7,26.1,591.8,25.8,592,25.6c0.2,0,0.3-0.1,0.3-0.3L592,25.6z
		 M592.7,23.3c0.1-0.1,0-0.3-0.1-0.7v1.1C592.6,23.6,592.6,23.4,592.7,23.3z M595.9,22.4c-0.7,0.4-1.4,0.8-2,1.2
		c-0.6,0.5-0.8,1-0.4,1.5c0.4-0.7,0.8-1.2,1.2-1.4C595.1,23.6,595.5,23.1,595.9,22.4c0.5,0,0.7-0.1,0.4-0.3
		C596,21.9,595.9,22,595.9,22.4z M593.4,100.9c0.2-0.2,0.5-0.3,0.8-0.3C594.2,100.8,594,100.9,593.4,100.9z M593.7,22.4
		c0.4,0,0.7-0.1,1.1-0.4c0.4-0.3,0.3-0.6-0.3-1c-0.2,0.4-0.4,0.6-0.5,0.7C593.8,21.8,593.7,22,593.7,22.4z M596.3,20.5
		c0.5,0,0.6-0.2,0.4-0.5c-0.4,0-0.7,0.1-1,0.4c-0.3,0.3-0.2,0.5,0.1,0.7C595.7,20.6,595.8,20.5,596.3,20.5z M597.8,20.7
		c-0.4,0-0.5,0.1-0.5,0.3C597.6,21,597.8,20.9,597.8,20.7z M598.6,18.5c0.2,0.4,0.3,0.3,0.3-0.3C598.9,17.7,598.8,17.8,598.6,18.5z
		 M598.6,99.8c0.4,0.4,0.5,0.4,0.5,0C599.2,99.5,599,99.5,598.6,99.8z M600.2,19c0.4-0.5,0.4-0.5,0-0.1
		C599.9,19.4,599.9,19.4,600.2,19z M600,99.6h0.3V99H600V99.6z M601.6,18.3c0.5,0,0.8-0.4,0.8-1.1c-0.2,0.2-0.4,0.3-0.5,0.4
		S601.6,17.9,601.6,18.3z M601.9,16.6h0.5c0.2-0.5,0.1-0.8-0.3-0.8c0,0.2-0.1,0.2-0.3,0L601.9,16.6L601.9,16.6z M603.8,16.9
		c-0.7,0-1.1,0.1-1.1,0.3C603.2,17.2,603.6,17.1,603.8,16.9z M603.5,97.4c-0.5,0-0.6-0.1-0.3-0.4C603.6,96.7,603.7,96.8,603.5,97.4z
		 M604.9,15.8c0.4,0.2,0.9-0.1,1.6-0.8C605.8,15.2,605.3,15.4,604.9,15.8z M606,13.6c-0.4,0.2-0.6,0.5-0.8,0.8
		c0.4-0.2,0.7-0.4,1.1-0.6c0.4-0.2,0.7-0.4,1.1-0.6c-0.2-0.4-0.4-0.6-0.5-0.6C606.6,13.1,606.4,13.4,606,13.6z M607.1,14.4
		c-0.5,0-0.7,0.2-0.4,0.6C607,15.3,607.1,15.2,607.1,14.4c0.4,0.4,0.6,0.5,0.8,0.3c0.2-0.2,0.1-0.4-0.3-0.6
		C607.3,14.1,607.1,14.2,607.1,14.4z M607.6,12.8c1.5-0.4,2.3-0.9,2.5-1.6c-0.5,0.4-1,0.6-1.4,0.8C608.4,12.1,608,12.4,607.6,12.8z
		 M609,13.6c0.2,0,0.5,0,0.8-0.1c0.4-0.1,0.4-0.3,0-0.7c0,0.4-0.2,0.5-0.5,0.4C608.9,13.1,608.8,13.2,609,13.6z M610.1,14.4
		c-0.5,0-0.9,0.2-1.1,0.6C609.7,15,610.1,14.8,610.1,14.4l0.3-0.3c0.4-0.2,0.5-0.3,0.3-0.3s-0.3,0.1-0.3,0.3
		C610.2,14.1,610.1,14.2,610.1,14.4z M610.4,11.7h0.3c0-0.4,0-0.6,0.1-0.6c0.1,0,0.1-0.1,0.1-0.3c-0.2,0-0.3,0-0.3-0.1
		c0-0.1-0.1-0.1-0.3-0.1L610.4,11.7L610.4,11.7z M610.4,12.5c0.2,0.6,0.3,0.6,0.4,0.1C610.9,12.2,610.7,12.1,610.4,12.5z
		 M611.7,13.3c0.5,0.4,0.8,0.2,0.8-0.6C612.2,12.8,611.9,13,611.7,13.3z M626.8,25.9c0-0.9,0-1.8,0.1-2.7c0.1-0.9,0-1.6-0.4-2.2
		c-0.4,0.5-0.5,1.4-0.5,2.6C626,24.8,626.2,25.6,626.8,25.9z M626.8,27.3c0-0.2-0.2-0.5-0.5-0.8C626.4,27,626.6,27.3,626.8,27.3z
		 M626.5,27.8c0-0.5-0.1-0.6-0.3-0.3C626.4,28.3,626.5,28.4,626.5,27.8z M630.1,92.4c-0.2,0.9-0.2,1-0.1,0.3
		C630,92,630.1,91.9,630.1,92.4z"/>
	<path class="st0" d="M674.2,106.4c-0.4,2.4-1.5,4.4-3.3,6c-1.8,1.6-3.7,3.1-5.8,4.4c-2,0.2-3.7,0-5.1-0.7c-1.4-0.6-2.5-1.4-3.4-2.3
		c-0.5-1.5-1.3-3-2.2-4.7c0-2.7,0.5-4.9,1.6-6.6c1.1-1.6,2.5-3.1,4.1-4.4c0.5-0.2,1.1-0.1,1.6,0.3c0.5,0.4,0.8,0.2,0.8-0.6
		c1.8,1.3,3.5,2.2,5.1,2.9c1.5,0.6,3.2,1.4,5.1,2.3c0,0.7,0.2,1.4,0.5,2.1C673.7,105.8,674,106.2,674.2,106.4z"/>
</g>
<g>
	<path class="st0" d="M80.2,150.1c-0.3,0.2-0.4,0.4-0.3,0.5C80.4,150.8,80.5,150.6,80.2,150.1c0.4,0,0.9-0.2,1.6-0.6
		c0.2,0.3,0.2,0.5,0,0.5c-0.2,0-0.2,0.2,0,0.5c0.7-0.6,1.6-1.1,2.9-1.4c1.2-0.3,2.4-0.6,3.7-0.9c0.1,0.2,0.2,0.2,0.3,0.2
		c0.1-0.1,0.2,0,0.3,0.2c-0.2,0.1-0.2,0.1-0.1,0.2c0.1,0,0.1,0.1-0.1,0.2c0.5-0.3,0.7-0.5,0.6-0.6c1.2-0.9,2.5-1.4,4-1.4
		c1.5,0,3-0.4,4.5-1l0.4,0.7c0.5-0.5,0.9-0.8,1.2-0.9c0.3-0.1,0.6-0.1,1-0.1c0.1,0.2,0,0.3-0.3,0.3c-0.3,0.1-0.3,0.2-0.2,0.6
		c0.8-0.5,1.9-0.9,3.2-1.3c1.4-0.4,2.6-0.8,3.6-1.2c0.2,0.3,0.2,0.7,0.1,1.2c2.2-1.3,4.4-2,6.7-2c0,0.4-0.2,0.6-0.6,0.5
		c-0.5-0.1-0.8,0.1-1,0.4c1.2,0.2,2.2-0.2,3-1.1s1.8-0.8,2.8,0.2c0.3-1,0.9-1.4,1.9-1.3s1.9,0,2.7-0.5c-0.1,0.5-0.3,0.8-0.4,0.9
		c0.4,0.6,0.7,0.6,0.8-0.2c-0.3-0.9,0.2-1.2,1.5-0.9c1.3,0.3,2.2,0.1,2.7-0.6c0.5,0.1,0.6,0.2,0.4,0.2c-0.2,0-0.2,0.2,0,0.5
		c0.4,0,0.6-0.1,0.6-0.4c0-0.2,0.1-0.4,0.4-0.6c0.4,0.4,0.4,0.6,0,0.8c-0.4,0.1-0.5,0.5-0.2,0.9c0.4,0,0.6-0.3,0.7-0.7
		c0.1-0.5,0.4-0.5,1-0.2c-0.1-1,0.4-1.5,1.7-1.5c1.3,0,2.3-0.1,3.2-0.5c0.2,0.3,0.1,0.5-0.2,0.4s-0.4,0.1-0.2,0.4
		c0.8-0.1,1.6-0.3,2.3-0.7s1.5-0.7,2.5-0.8c0.3,0.2,0.4,0.4,0.3,0.5c-0.2,0.1-0.1,0.3,0,0.6c0.4,0,0.6-0.2,0.6-0.6
		c0-0.4,0.4-0.6,1.2-0.7l0.3,0.5c0.2-0.3,0.5-0.5,0.8-0.5s0.7-0.2,1.1-0.6c0.6,0.3,0.6,0.5,0,0.6c-0.6,0.1-0.9,0.4-1,0.9
		c0.5,0.1,0.8,0,1-0.4s0.6-0.5,1.1-0.2c0.1-0.2,0.2-0.5,0.6-0.6c0.3-0.2,0.6-0.4,0.8-0.8c0.3,0.2,0.7,0.4,1,0.6
		c0.3,0.1,0.6-0.1,0.9-0.7c0.4,0.4,0.5,0.7,0.2,0.9c-0.3,0.2-0.2,0.3,0.3,0.5c0.3-0.2,0.4-0.5,0.4-1c-0.1-0.5,0.3-0.6,1-0.4l0.1,0.2
		c-0.6,0.4-0.9,0.6-0.8,0.8c0.1,0.1,0.4,0.1,1.1-0.3l-0.3-0.5c0.5,0.1,0.9,0,1.3-0.3c0.3-0.3,0.8-0.2,1.3,0.3
		c-0.3,0.2-0.6,0.2-0.8,0c-0.2-0.2-0.5-0.1-0.9,0.4c0.3,0.2,0.8,0.2,1.3,0c0.5-0.2,1-0.3,1.4-0.3c-0.2-0.3-0.4-0.4-0.6-0.1
		s-0.3,0.2-0.4,0.1c0.8-0.5,1.4-0.7,1.9-0.8c0.5-0.1,1-0.2,1.6-0.3c0.6-0.1,0.6-0.1,0.3,0.2c-0.4,0.2-0.7,0.4-0.8,0.5
		c0.4,0.6,0.7,0.6,1.1,0c0.4-0.6,0.8-0.9,1.3-0.8c0.1,0.2,0.1,0.3,0,0.3s0,0.2,0.2,0.5c0.5-0.3,0.8-0.5,1-0.7s0.5-0.5,1-0.7l0.1,0.2
		c-0.5,0.3-0.7,0.5-0.8,0.8c0.7,0.4,1,0.6,0.9,0.4c0.3-0.2,0.3-0.6-0.1-1.2c1-0.1,1.7-0.2,2.3-0.2c0.5,0,1.3-0.1,2.3-0.2
		c-0.3,0.2-0.4,0.4-0.2,0.8c0.5,0.1,1.1-0.1,1.8-0.7c0.7-0.6,1.5-1,2.5-1.1c-0.2,0.8-0.6,1.1-1,0.9c0.5,0.8,0.9,0.8,1.4,0.2
		c0.4-0.7,0.8-0.9,1.2-0.7c0.2,0.3,0.1,0.5-0.1,0.6s-0.3,0.2-0.1,0.6c0.2,0.1,0.6-0.1,0.9-0.6c0.4-0.4,0.6-0.7,0.8-0.8
		c0.1,0.2,0.1,0.3,0.2,0.5c0,0.2,0.2,0.4,0.5,0.6c-0.3,0.2-0.6,0.3-1,0.2c-0.3,0-0.6,0.2-0.7,0.7c0.2,0.3,0.4,0.3,0.7-0.1
		s0.5-0.4,0.5,0c-0.9,0.6-1.6,0.6-1.8,0.1c-0.9,1-1.9,1.2-2.9,0.7c-1-0.5-1.9-0.3-2.7,0.6c-0.3-0.2-0.4-0.4-0.2-0.5
		c0.2-0.1,0.1-0.3-0.4-0.4c-0.8,0.9-1.6,1.2-2.5,1.1c0.9,0.8,1.9,0.9,3.2,0.3c1.3-0.5,2.4-0.6,3.3,0c3.4-1.4,6.7-1.8,10-1.4
		c1.6-0.5,3.3-0.8,5.1-0.9c1.8-0.1,3.7-0.3,5.7-0.6c-0.3-0.5-0.9-0.6-1.9-0.5c-1,0.1-1.6,0.3-1.9,0.5c0-0.4,0.1-0.7,0.4-0.9
		c-0.3-0.2-0.7-0.1-1.1,0.3c-0.4,0.4-0.7,0.7-1,0.9c-0.6-1.1-1.9-1.4-3.6-0.7l0.3,0.5c-2.6,0.7-5.3,1-8,0.9c0.4,0,0.7-0.2,0.9-0.6
		s0.2-0.4,0-0.3c-0.2,0.1-0.4,0.1-0.5,0l-0.1-0.2l-0.3-0.5c0.6-0.8,1.3-1.1,2.2-1.1c0.9,0,1.7,0,2.5,0c-0.6,0.8-0.5,1,0.3,0.8
		c0.8-0.3,1.4-0.4,1.8-0.4c-0.3-0.5-0.6-0.6-0.9-0.2s-0.7,0.4-1,0.1l-0.1-0.2c0.6-0.4,1.1-0.5,1.5-0.4c0.4,0.1,1,0.1,1.8,0.1
		c-0.4,0.7-0.4,1,0.2,0.9c0.6-0.1,0.5-0.4-0.2-0.9c0.4,0,0.9,0,1.4,0s1.2-0.1,1.9-0.3c-0.2,0.3-0.6,0.6-1,0.9c0.6,0.3,1,0.3,1.2-0.1
		c0.2-0.3,0.4-0.7,0.7-1c-0.1,0.2,0.1,0.6,0.6,0.9c-0.1-0.6,0.1-0.8,0.6-0.6s0.6-0.1,0.2-0.8c1.1,0,2.1-0.1,3.1-0.2
		c1-0.1,2,0,3.1,0.4c-0.3,0.2-0.5,0.4-0.6,0.6c0.5-0.3,0.7-0.5,0.6-0.6c1-0.8,1.9-1.1,2.5-0.8s1.3,0.2,1.9-0.2
		c0.1,0.2-0.2,0.4-0.8,0.8c0.4,0.4,0.8,0.4,1.1,0s0.7-0.7,1.2-1c0.5,0.8,0.9,0.9,1.4,0.5s0.8-0.8,1.2-1c0.3,0.2,0.6,0.3,0.8,0.3
		c0.2,0,0.3,0.3,0.2,1c0.5,0.1,0.7-0.1,0.6-0.5c-0.1-0.5,0.3-0.8,1.1-0.8c0.2,0.3,0,0.7-0.7,1c0.6,0.3,1,0.2,1.1-0.2
		s0.6-0.8,1.2-1.2c0,0.7,0.1,0.9,0.5,0.8c0.4-0.1,0.7-0.2,1-0.4c0.7,0,0.7,0.1,0.1,0.2c-0.6,0.1-0.8,0.3-0.6,0.6
		c0.5,0.1,0.9,0,1.2-0.4s0.6-0.8,0.8-1.1c0.5,0.1,0.6,0.3,0.5,0.5c-0.2,0.2-0.2,0.5,0,0.8c1-0.1,1.6-0.3,2.1-0.6
		c0.4-0.2,1-0.6,1.8-1c0.2,0.3,0.4,0.5,0.5,0.6s0.3,0.2,0.4,0.4c0.1-0.2,0-0.5-0.1-0.7c-0.1-0.2,0-0.4,0.4-0.4
		c0.2,0.3,0.3,0.5,0.2,0.7c0,0.1,0,0.3,0.1,0.4c1-1.2,1.9-1.6,2.7-1.3c0.8,0.4,1.8,0.2,2.9-0.4c0.1,0.8,0.2,1.2,0.3,1.1
		c0.2-0.1,0.5,0,1.1,0.3c1-1.2,2.1-1.6,3.4-1.3c1.2,0.3,2.3,0.1,3.1-0.6c1.1,0.4,2,0.5,2.7,0.3s1.5-0.5,2.4-0.8
		c0.3,0.5,0.1,0.8-0.4,0.9c0.6,0.3,1.2,0.2,1.8-0.1s1.1-0.6,1.6-0.6c0.3,0.5,0.3,0.6,0,0.5c-0.3-0.1-0.6-0.1-0.9,0.1
		c1,0.7,2,0.6,3.1-0.2c1-0.8,1.9-0.8,2.8-0.1l1.4-0.8c0.6,0.3,1.2,0.4,1.7,0.2c0.6-0.1,1.2-0.2,2.1-0.3l0.4,0.7
		c-0.3,0.2-0.4,0.2-0.4,0.2c0.1-0.1,0.2,0,0.3,0.2c0.2-0.1,0.2-0.2,0.3-0.3c0-0.1,0-0.1-0.2-0.1c0.8-0.5,1.8-0.6,2.9-0.4
		c1.1,0.2,2.1,0,2.9-0.4c-0.1,0.5-0.5,0.8-1,0.9c0.5,0.1,1,0.3,1.5,0.4c0.5,0.1,0.9-0.1,1.2-0.7c-0.2-0.1-0.5-0.2-0.6-0.3
		s-0.4-0.1-0.7,0.1c0.2-0.3,0.7-0.5,1.5-0.4c0.8,0.1,1.1,0.4,1,0.9c0.5,0.1,0.7,0.1,0.7-0.2c-0.1-0.3,0.1-0.5,0.4-0.7
		c0.1,0.2,0.2,0.3,0.4,0.4c0.2,0.1,0.3,0.2,0.4,0.4c4.6-0.4,9.3-0.5,13.9-0.4c4.6,0.1,9.2,0.9,13.6,2.4c0.3-0.2,0.3-0.4,0.1-0.7
		c-0.3-0.3-0.1-0.5,0.5-0.6c0.2,0.3,0.4,0.4,0.5,0.3c0.3,0.5,0.3,0.6,0,0.5c-0.3-0.1-0.6-0.1-0.8,0.3c2.3,1,3.7,2.6,4.2,4.8
		c0.5,2.2,1,4.2,1.4,5.9l-1,0.6c0,0.7,0,1.1,0,1.3c0,0.2,0.3,0.6,1,1.4c-0.4,0-0.8,0.2-1,0.4c-0.3,0.3-0.3,0.6,0,1.1
		c-0.4,0-0.8,0-1.1,0c-0.3,0-0.4,0.3-0.2,1.1c-0.3,0.2-0.6,0.2-0.7,0.1s-0.4,0-0.6,0.4c-2.4-0.9-5-1.4-7.6-1.4s-5.2-0.3-7.6-0.8
		c-0.2,0.1-0.2,0.2-0.3,0.3s-0.2,0.3-0.5,0.5c-2.6-0.4-5.1-0.5-7.6-0.3c-2.5,0.2-5.2,0.1-8-0.4c-4.4,0.9-8.9,1.1-13.6,0.6
		c-4.7-0.4-9.4,0.1-14.2,1.7c-0.3-0.5-0.3-0.8-0.2-0.9c-1.6,0.1-3.1,0.1-4.5,0.1c-1.4,0-2.7,0.3-4,1.1l-0.4-0.7
		c-1.3,0.7-2.3,0.9-3,0.5c-0.8-0.4-1.5-0.2-2.3,0.7c-1.2-0.2-2.4-0.3-3.6-0.4c-1.2-0.1-2.5,0.2-3.7,0.9c-4.6,0.4-9.2,0.8-13.8,1.1
		c-4.6,0.3-9,0.9-13.4,1.8c-11.6,1.1-22.8,2.7-33.6,4.9c-10.8,2.2-21.4,4-32,5.5c-6.4,1.6-13.2,3.1-20.3,4.3
		c-7.1,1.2-13.9,2.8-20.4,4.7c-1.2-0.3-2.3-0.3-3.1,0.2c-0.8,0.5-1.8,0.6-2.9,0.4c-2.9,0.8-6,1.6-9.2,2.4c-3.3,0.7-6.4,1.3-9.4,1.5
		c-3.3,0.9-6.7,1.8-10.3,2.7c-3.6,0.9-7.2,1.6-11,2.1c-1.4,0.6-2.8,1-4.5,1.3c-1.6,0.3-3,0.3-4.1-0.2c-0.2,0.3-0.5,0.5-0.8,0.5
		s-0.6,0.1-1,0.2c-0.1-0.2,0.2-0.4,0.8-0.8c-0.8-0.4-1.5-0.4-2-0.2s-1,0.2-1.5,0.1c0.6-0.8,0.6-1.2-0.1-1.2c-0.6,0-1.3-0.2-1.9-0.5
		c0.4,0,0.6-0.2,0.7-0.4c0.1-0.2,0.3-0.5,0.6-0.6c-0.2-0.1-0.5-0.2-0.7-0.4c-0.2-0.2-0.4-0.3-0.7-0.4c0.1-0.5-0.4-1.4-1.7-2.8
		c-0.1-1-0.2-1.9-0.2-2.9c0-0.9-0.4-1.6-1.1-2.1c0.5-1.3,0.4-2.6-0.2-3.7c0.7-0.6,0.9-1.6,0.6-2.9c2.3-1.1,4.5-2.3,6.6-3.4
		c2.1-1.1,4.5-1.9,7.1-2.4c0.2,0.3,0.1,0.5-0.3,0.6c-0.4,0.1-0.5,0.2-0.4,0.4c0.2,0.3,0.3,0.4,0.4,0.4c0.1-0.1,0.2,0,0.3,0.2
		c0-1.1,0.4-1.7,1.2-1.8c0.8-0.1,1.5,0.1,2.1,0.8c-0.1,0.5-0.6,0.9-1.4,1.1c-0.8,0.3-1.3,0.7-1.6,1.3c0.1,0.2,0.4,0.1,0.9-0.2
		c0.5-0.3,0.7-0.2,0.8,0.2c-1,0.1-1.7,0.4-2.1,0.8c-0.4,0.4-1.1,0.6-2.1,0.8c0.3,0.2,0.8,0.3,1.4,0.1c0.6-0.1,1,0.1,1.4,0.8
		c3.1-0.5,6.1-1.3,9-2.2c2.9-1,5.9-1.6,8.9-1.9c3.8-1.1,7.3-2,10.5-2.6s6.6-1.4,10-2.4c0.5,0.1,0.6,0.3,0.4,0.4
		c-0.2,0.1-0.2,0.3,0.2,0.5c1.5-1.5,3.2-2.2,5.1-2.2c1.9,0,3.7-0.4,5.2-1.3c0.2,0.1,0.5,0.5,0.7,1.2c0.6-0.8,1-1.2,1.3-1.2
		c0.3-0.1,0.9-0.2,1.7-0.6c0.1,0.2,0.1,0.3,0,0.3s0,0.2,0.2,0.5C76.5,150.5,78.4,149.9,80.2,150.1z M26.8,156.3c0,0.6-0.4,1.1-1,1.2
		c-0.6,0.2-1.3,0.2-2,0.2c0.1-0.5,0.6-0.8,1.4-0.9C25.9,156.7,26.5,156.5,26.8,156.3z M23.2,161c0.6,0.3,0.6,0.4,0,0.2
		C22.5,161,22.5,160.9,23.2,161z M28,163.2c0.2,0.3,0.4,0.4,0.5,0.3C28.3,163.3,28.1,163.1,28,163.2z M41.1,159.7
		c-0.2-0.3-0.4-0.4-0.5-0.3C40.8,159.7,41,159.8,41.1,159.7z M41.8,159.3c-0.2,0.3-0.1,0.4,0.3,0.2
		C42.5,159.2,42.4,159.1,41.8,159.3z M44.8,158.4c0,0.4,0.3,0.5,0.9,0.2c0.6-0.2,0.7-0.5,0.4-0.7c-0.3,0.2-0.5,0.3-0.7,0.2
		C45.4,158.2,45.2,158.3,44.8,158.4z M11.4,179.9c0.5-0.3,0.4-0.4-0.3-0.5C10.9,180,10.9,180.2,11.4,179.9z M49.7,157.5
		c-0.2,0.1-0.2,0-0.3-0.2C49.4,157.1,49.5,157.2,49.7,157.5z M49.9,157.4c0,0.4,0.3,0.5,0.8,0.2c0.5-0.3,0.7-0.5,0.6-0.6
		c-0.3,0.2-0.6,0.2-0.8,0C50.2,156.7,50.1,156.9,49.9,157.4z M50.2,158.5c0.2-0.1,0.5-0.2,1-0.2c0.5-0.1,0.5-0.3,0.1-0.7
		c-0.2,0.1-0.4,0.2-0.8,0.3C50.2,157.9,50.1,158.1,50.2,158.5z M50,159.2c-0.4,0.4-0.4,0.5,0,0.3C50.5,159.3,50.5,159.2,50,159.2z
		 M58.3,155.4c-0.2,0.3-0.1,0.4,0.3,0.2C58.9,155.3,58.8,155.2,58.3,155.4z M53.4,158.5c-0.7,0.2-0.8,0.2-0.2-0.1
		C53.8,158.2,53.9,158.2,53.4,158.5z M59.9,155.4l-0.1-0.2l-0.4-0.1l0.1,0.2C59.6,155.4,59.7,155.5,59.9,155.4z M62.4,154.2
		c0.2,0.3,0.6,0.3,1.2-0.1c-0.4,0-0.6,0-0.7-0.1C62.8,154,62.7,154.1,62.4,154.2z M61.5,155.4c-0.4,0.4-0.3,0.6,0.1,0.4
		C62,155.7,62,155.5,61.5,155.4z M64.9,153.7c-0.5-0.1-0.5-0.1,0.1,0.1C65.5,154,65.5,154,64.9,153.7z M59.9,157.6
		c0.2-0.3,0.4-0.4,0.6-0.4c0.2,0.1,0.4,0.1,0.7-0.1c-0.1-0.2-0.1-0.3-0.1-0.4c0-0.1,0-0.3-0.2-0.7C59.9,156.6,59.6,157.1,59.9,157.6
		z M67,154.1c-0.5-0.1-0.6,0-0.4,0.4C66.8,154.8,67,154.7,67,154.1z M69.8,152.4c-0.2,0.3-0.1,0.4,0.3,0.2
		C70.5,152.3,70.4,152.3,69.8,152.4z M63.5,156.1c0,0.7,0.2,0.9,0.7,0.6s0.4-0.6-0.2-0.9L63.5,156.1z M67.7,154.6
		c0,0.4,0.3,0.5,0.8,0.2c0.5-0.3,0.5-0.5,0.2-0.8L67.7,154.6z M73.1,152.1c0.2-0.1,0.3-0.1,0.4,0.1c0.5-0.3,0.5-0.5,0-0.6
		C73.3,152,73.2,152.2,73.1,152.1z M62.1,158.2c-0.2,0.3-0.1,0.4,0.4,0.1C63,158,62.8,158,62.1,158.2z M69.5,154.5l-0.2,0.1l0.4,0.7
		l0.7-0.4l-0.3-0.5C69.8,154.6,69.6,154.6,69.5,154.5z M70.6,154.2c-0.4,0.7-0.4,0.9,0.2,0.5C71.3,154.4,71.2,154.2,70.6,154.2z
		 M72,154l0.1,0.2l0.5-0.3l-0.1-0.2L72,154z M74.4,153.2c-0.2,0.3-0.2,0.6,0.1,0.7c0.3,0.1,0.5,0,0.6-0.5l-0.6,0L74.4,153.2z
		 M74.6,155c-0.4,0.4-0.4,0.5,0,0.3C75,155.1,75,155,74.6,155z M79.4,152.5c-0.2,0.3-0.1,0.4,0.3,0.3
		C80.2,152.6,80.1,152.5,79.4,152.5z M80.9,152.9c0.2-0.3,0.6-0.4,1.1-0.3c0.5,0.1,0.7,0,0.7-0.4c-0.2-0.1-0.6-0.1-1.1,0
		C81.1,152.2,80.9,152.5,80.9,152.9z M78.6,154.3c0.2,0.3,0.6,0.3,1.2-0.1c-0.2-0.3-0.4-0.4-0.6-0.1C79,154.3,78.8,154.3,78.6,154.3
		z M85.3,150.6l-0.7,0.4l0.6,0.9l0.7-0.4l-0.4-0.7C85.3,151,85.2,150.9,85.3,150.6z M83.9,152.1c1-0.1,1.2-0.3,0.8-0.5
		C84.3,151.4,84.1,151.6,83.9,152.1z M81.2,153.4l0.4,0.7l0.5-0.3l-0.4-0.7L81.2,153.4z M90.3,148.3c-0.1,0.5,0,0.6,0.4,0.4
		C91.1,148.5,91,148.4,90.3,148.3z M87.6,151.2c0.2-0.3,0.6-0.4,1.3-0.3c0.6,0.2,0.8-0.1,0.4-0.7c-0.5,0.3-0.9,0.4-1.3,0.3
		C87.6,150.4,87.4,150.7,87.6,151.2z M73.5,159.1c-0.5,0.5-0.5,0.6,0,0.3C74.1,159.1,74,159,73.5,159.1z M94.1,147.7
		c0.3-0.2,0.7-0.2,1.2-0.2c0.4,0.1,0.7-0.2,0.9-0.7c-0.3,0.2-0.7,0.2-1.2,0.2S94.2,147.2,94.1,147.7z M91.7,150.4
		c0.5-0.1,0.5-0.4,0.2-1.1c-0.6,0.4-1,0.5-1.1,0.3C90.9,150.2,91.2,150.5,91.7,150.4z M87.9,152.3C87.4,152.2,87.4,152.2,87.9,152.3
		S88.4,152.4,87.9,152.3z M95.8,148c-0.2,0.3-0.1,0.4,0.4,0.2C96.8,148,96.6,147.9,95.8,148z M85.4,154.1l0.3,0.5l0.2-0.1l-0.3-0.5
		L85.4,154.1z M100.4,145.6c0.3-0.2,0.4-0.2,0.3,0C100.6,145.7,100.5,145.8,100.4,145.6z M93.3,149.7c1.2,0.2,2.4,0.1,3.7-0.1
		s2.5-0.9,3.4-1.8c-1.3,0.3-2.5,0.7-3.7,1C95.6,149.2,94.5,149.5,93.3,149.7z M90.6,152c-0.2-0.3-0.3-0.4-0.4-0.1
		C90.1,152.2,90.2,152.2,90.6,152c0.3,0.2,0.5,0.2,0.4,0.1C90.8,151.9,90.7,151.9,90.6,152z M94.1,151.5c0.6-0.4,1.3-0.5,2-0.4
		s1.1-0.1,1.2-0.6c-0.5-0.1-1.2-0.2-2-0.2C94.4,150.3,94,150.7,94.1,151.5z M102,146.6c0.1,0.2,0.2,0.2,0.4,0.1
		C102.3,146.5,102.1,146.5,102,146.6z M86.9,156.1c0.3,0.2,0.6,0.2,0.8,0c0.2-0.2,0.3-0.5,0.2-0.9c-0.2,0.3-0.4,0.5-0.6,0.5
		C87.1,155.7,86.9,155.8,86.9,156.1z M100.8,147.9c0.3,0.5,0.5,0.6,0.8,0.5s0.6-0.2,1-0.2l-0.6-0.9L100.8,147.9z M88.7,155.9
		c0.5-0.3,0.4-0.4-0.1-0.2C88.2,156.1,88.2,156.2,88.7,155.9z M104.5,147c-0.4,0.4-0.9,0.6-1.4,0.5s-0.6,0.3-0.2,1.1
		c0.1-0.5,0.4-0.6,0.7-0.4c0.3,0.2,0.8,0.1,1.5-0.2c0-0.4-0.2-0.6-0.3-0.6C104.5,147.4,104.4,147.3,104.5,147z M98.4,150.3l-0.1,0.4
		c0.5-0.3,0.6-0.4,0.3-0.5L98.4,150.3z M91.9,154.4c-0.2,0.1-0.2,0.1-0.2-0.1s0-0.1-0.2-0.1C91.7,154.4,91.8,154.5,91.9,154.4z
		 M90.6,154.8c-0.4,0.4-0.3,0.5,0.1,0.2C91.2,154.8,91.2,154.7,90.6,154.8z M106.2,146.3c-0.1-0.2,0.1-0.4,0.6-0.6
		c-0.4,0-0.7,0.2-0.8,0.5C105.8,146.4,105.9,146.5,106.2,146.3z M108.5,144.7c-0.4,0.4-0.4,0.5,0,0.3
		C108.9,144.8,108.9,144.7,108.5,144.7z M110.2,144.9c0.2-0.1,0.2-0.3,0-0.5c-0.1-0.2-0.3-0.3-0.4-0.2c0.1,0.2,0.1,0.3-0.1,0.4
		C109.5,144.7,109.7,144.8,110.2,144.9z M100.8,150.5c0.4-0.7,0.9-0.9,1.5-0.7c0.5,0.2,0.7,0.2,0.5-0.2c-0.4,0-0.9,0-1.4-0.2
		C100.9,149.3,100.7,149.7,100.8,150.5z M111.2,144.4c-0.2,0.1-0.2,0-0.3-0.2S111,144.1,111.2,144.4z M106.1,147.7
		c1.5,0,2.5-0.5,3-1.4c-0.7,0.2-1.3,0.4-1.8,0.4C106.8,146.8,106.4,147.1,106.1,147.7z M100.2,151.9c0.4-0.1,0.3-0.2-0.3-0.3
		C99.6,152,99.7,152.1,100.2,151.9z M105.8,148.6c-0.4,0.1-0.5,0.5-0.2,0.9c0.2,0.1,0.4-0.1,0.4-0.4c0-0.3,0.4-0.5,1-0.4
		C106.7,148.5,106.3,148.5,105.8,148.6z M115.5,143.1c-0.3,0.6-0.2,0.8,0.3,0.5C116.2,143.3,116.1,143.2,115.5,143.1z M109.2,147.5
		c0.6-0.4,0.9-0.8,0.9-1.2C109.3,146.8,109,147.1,109.2,147.5z M113,145.9c0.5-0.3,0.6-0.6,0.4-0.9l-0.5,0.3
		C113,145.4,113,145.6,113,145.9z M111.3,146.2c0,0.4,0.1,0.6,0.3,0.5c0.2-0.1,0.4-0.1,0.6,0C112.1,146.5,111.8,146.4,111.3,146.2z
		 M109.2,148.1c-0.2-0.1-0.4-0.1-0.5,0c-0.1,0.1-0.2,0-0.5,0l0.3,0.5L109.2,148.1c0.2,0.3,0.3,0.3,0.4-0.1
		C109.7,147.6,109.6,147.6,109.2,148.1z M107.6,148.7c0.2-0.1,0.2-0.2,0.2-0.3c-0.1-0.1-0.2-0.1-0.3,0
		C107.4,148.7,107.5,148.8,107.6,148.7z M115.2,144.9c-0.9,0.3-1,0.3-0.3,0C115.6,144.6,115.7,144.6,115.2,144.9z M118.9,143
		c0.2-0.3,0.5-0.4,1-0.2c0.4,0.2,0.5,0,0.2-0.4C119.3,142.4,118.9,142.6,118.9,143z M110.4,148c0.3-0.2,0.5-0.2,0.7,0.1
		s0.3,0.4,0.6,0.4c0.8-0.5,1.1-0.9,0.9-1.2c-0.3,0.2-0.7,0.2-1.2,0.1C110.8,147.3,110.5,147.5,110.4,148z M128,142.8
		c-2.7,1.2-5,1.4-7,0.6c-0.6,0.1-0.7,0.3-0.3,0.6c0.4,0.3,0.3,0.6-0.1,0.9c-0.1-0.2-0.3-0.1-0.6,0c0.3,0.5,0.7,0.5,1.3,0
		c0.6-0.4,1.1-0.4,1.4,0.3c0.6-0.8,1.6-1.1,2.9-0.9c1.4,0.2,2.4-0.1,3.1-0.7c-0.2,0.1-0.3,0-0.4-0.4
		C128.3,142.8,128.1,142.7,128,142.8z M119.1,145.5c-0.3-0.5-0.5-0.7-0.7-0.6c0.2,0.1,0.4,0.2,0.4,0.4
		C118.8,145.5,118.9,145.6,119.1,145.5z M114.7,147.1l-0.7,0.4C114.4,147.6,114.7,147.5,114.7,147.1z M124.7,141.5l-0.5,0.3
		c0,0.4,0.3,0.6,0.8,0.5c0.5-0.1,0.6-0.3,0.4-0.6C125.1,141.9,124.9,141.9,124.7,141.5z M110.3,150.5c-0.1-0.2-0.3-0.3-0.4-0.2
		l0.4,0.7C110.4,150.9,110.4,150.7,110.3,150.5z M116.2,147.1c0.2-0.1,0.4-0.1,0.8,0c0.4,0.1,0.6-0.1,0.5-0.5
		c-0.2,0.1-0.4,0.1-0.8,0C116.4,146.6,116.2,146.7,116.2,147.1z M118.2,146.6l0.1,0.2l0.7-0.4l-0.1-0.2L118.2,146.6z M116.8,148.7
		c-0.3-0.5-0.5-0.7-0.7-0.6C116.5,148.6,116.7,148.8,116.8,148.7z M112.5,150.6l0.4,0.7c0.2-0.1,0.1-0.4-0.2-0.9L112.5,150.6z
		 M121,146.6c0.3-0.2,0.7-0.3,1-0.4s0.4-0.3,0.3-0.6C120.9,145.4,120.5,145.8,121,146.6z M123.7,145.3c-0.4,0.4-0.4,0.5,0,0.3
		C124.1,145.4,124.1,145.3,123.7,145.3z M125.7,145.4c0-0.4-0.2-0.5-0.5-0.3c-0.3,0.2-0.5,0.2-0.6,0
		C124.6,145.9,125,146,125.7,145.4z M117.4,150.2l0.7-0.4C117.4,149.4,117.2,149.5,117.4,150.2z M133.2,140.4
		c-0.1,0.5,0,0.6,0.4,0.4C134,140.5,133.9,140.4,133.2,140.4z M130.3,143l-0.1-0.2c-0.1-0.2-0.1-0.3,0-0.3c0.1-0.1,0.1-0.1,0-0.3
		c-0.8,0.5-1,0.9-0.5,1.3L130.3,143l0.1,0.2c0.2-0.1,0.5-0.1,0.9-0.1c0.4,0.1,0.7-0.1,0.6-0.5c-0.4,0-0.7,0.1-0.9,0.1
		C130.9,142.7,130.6,142.8,130.3,143z M135.6,139.6c0.4,0,0.4,0.1,0,0.3C135.2,140.1,135.2,140,135.6,139.6z M126.2,145.1
		c0.2,0.3,0.5,0.4,1.1,0.2c0.5-0.2,0.8-0.4,0.9-0.7c-0.4,0-0.7,0.1-1,0.2C126.9,145,126.6,145.1,126.2,145.1z M115,152.6
		c-0.7,0-0.7,0-0.1,0.1C115.5,152.8,115.5,152.7,115,152.6z M133.4,141.8c-0.4,0.4-0.3,0.5,0.3,0.2
		C134.2,141.7,134.2,141.6,133.4,141.8z M132.9,143.1l-0.1-0.2l-0.4-0.1c0.2-0.1,0.2,0,0.3,0.2C132.7,143.1,132.8,143.2,132.9,143.1
		z M130,144.1c-0.5,0.3-0.4,0.3,0.3,0.2C130.9,144.1,130.8,144.1,130,144.1z M133.9,142.5c0.3,0.2,1.1,0.3,2.3,0.2
		c1.2-0.1,2.2-0.4,2.9-1.1c-1.2-0.2-2.1-0.1-2.8,0.2C135.6,142.2,134.8,142.4,133.9,142.5z M141.1,139.2c-0.3,0.2-0.4,0.2-0.3,0
		S141,139.1,141.1,139.2z M138.9,140.9c0.8,0.2,1.3,0.2,1.6,0l-0.6-0.9c0.1,0.6,0,0.8-0.4,0.6C139.1,140.3,138.9,140.4,138.9,140.9z
		 M138.3,140.9c-0.4,0.4-0.4,0.6,0.1,0.4C138.8,141.2,138.8,141,138.3,140.9z M133.6,143.6l-0.5,0.3c0,0.4,0.2,0.5,0.6,0.3
		s0.5-0.5,0.3-0.8L133.6,143.6z M119.4,151.9c-0.2,0.3-0.1,0.4,0.4,0.1C120.2,151.8,120.1,151.7,119.4,151.9z M128,147.2l0.4,0.7
		l0.7-0.4l-0.4-0.7L128,147.2z M135.4,143.5c-0.5-0.1-0.7,0-0.5,0.3C135.1,144.1,135.3,144,135.4,143.5z M136.1,143.7l0.2-0.1
		c0.2-0.3,0.1-0.5-0.5-0.5C135.4,143.1,135.4,143.3,136.1,143.7z M121.2,151.8c-0.2,0.3-0.1,0.4,0.3,0.2
		C121.9,151.8,121.8,151.7,121.2,151.8z M129.5,147.6c0.2,0.1,0.5,0.1,0.6,0.3s0.3-0.2,0.3-0.8c-0.2,0.3-0.5,0.4-0.7,0.1
		C129.5,146.9,129.4,147,129.5,147.6z M139.7,141.7c0.3,0.2,0.9,0.3,1.6,0.2c0.7-0.1,1.1-0.3,1.4-0.6c-0.7,0-0.9-0.1-0.8-0.3
		c0.1-0.2,0.1-0.4-0.1-0.7C141.1,140.7,140.5,141.2,139.7,141.7z M145.4,138.3c0.1,0.6,0.4,0.7,0.9,0.4c0.5-0.3,0.5-0.6,0.1-1
		L145.4,138.3z M143.9,140.8c-0.1-0.2-0.2-0.2-0.4-0.1c-0.2,0.1-0.3,0-0.5-0.3c1.2,0.3,1.6,0,1-0.9l-1.6,1l0.6,0.9
		c0.7,0,1.3-0.1,1.8-0.4c0.6-0.3,0.9-0.7,1-1.2C144.9,140,144.3,140.3,143.9,140.8z M138.8,143.4l-0.3-0.5l-0.1-0.2
		c0.1,0.2,0.1,0.3-0.1,0.4C138.1,143.2,138.3,143.3,138.8,143.4z M131.3,146.9c-0.2,0.3-0.1,0.4,0.3,0.2
		C132,146.8,131.9,146.8,131.3,146.9z M132.9,146.3c-0.1,0.5,0,0.6,0.5,0.3C133.9,146.3,133.7,146.2,132.9,146.3z M140.6,142.7
		c-0.2-0.1-0.5,0-0.9,0.2C140.1,143.5,140.4,143.4,140.6,142.7l0.1,0.2c0.1,0.1,0.4,0.2,0.8,0c0.4-0.1,0.6-0.4,0.4-0.7
		c-0.2,0.3-0.4,0.4-0.6,0.4C141.2,142.5,140.9,142.5,140.6,142.7z M133.4,147.2c0.2,0.3,0.5,0.4,0.9,0.2c0.4-0.1,0.6-0.4,0.4-0.7
		c-0.3,0.2-0.5,0.2-0.5,0.2C134.2,146.8,133.9,146.9,133.4,147.2z M127.8,150.5c-0.2,0.3-0.1,0.4,0.4,0.1
		C128.6,150.4,128.5,150.3,127.8,150.5z M146.5,140.2c0.3,0.2,0.6,0.2,0.7-0.1c0.1-0.3,0.2-0.5,0.1-0.7
		C146.6,139.8,146.4,140.1,146.5,140.2z M136.4,145.8c-0.2,0.3-0.1,0.4,0.3,0.2C137.1,145.7,137,145.7,136.4,145.8z M148.9,139.5
		c-0.3,0.2-0.4,0.1-0.4-0.1c0.1-0.2-0.1-0.3-0.4-0.1l0.1,0.2C148.5,139.6,148.7,139.6,148.9,139.5z M135.6,147.2
		c-0.4-0.2-0.5-0.3-0.4-0.1C135.4,147.3,135.5,147.3,135.6,147.2c0.2,0.3,0.3,0.2,0.4-0.2C136,146.5,135.9,146.6,135.6,147.2z
		 M150.3,138.6c-0.9,0.6-1.6,1.2-2.1,1.9C149.1,140.2,149.8,139.6,150.3,138.6z M136.8,146.5c0,0.4,0.3,0.5,0.8,0.2
		c0.5-0.3,0.5-0.5,0-0.6L136.8,146.5z M154.2,137.1c0.7-0.3,0.8-0.3,0.3,0C153.6,137.4,153.5,137.4,154.2,137.1z M151.2,139.1
		c-0.4,0.4-0.7,0.6-0.9,0.6c-0.2-0.1-0.4,0.1-0.6,0.6c0.5,0.1,1,0.2,1.5,0.1c0.5-0.1,0.7-0.3,0.7-0.7
		C151.7,139.7,151.4,139.5,151.2,139.1z M152.7,139.4l-0.4-0.7c0.2,0.3,0.2,0.5,0,0.6C152.1,139.4,152.3,139.5,152.7,139.4z
		 M148.2,141.1l-1.2,0.7C147.8,142.4,148.2,142.2,148.2,141.1z M140.2,145.8l0.4,0.7C140.8,146.4,140.6,146.2,140.2,145.8z
		 M148.8,141.4c-0.4,0.4-0.3,0.5,0.1,0.2C149.4,141.4,149.3,141.3,148.8,141.4z M135.4,149.4c0.1-0.2,0-0.2-0.3,0
		C135.1,149.6,135.2,149.6,135.4,149.4z M154.5,138.7c-0.6-0.3-0.8-0.2-0.7,0.2S154.2,139.3,154.5,138.7c0.2,0.3,0.3,0.3,0.3,0
		C154.8,138.4,154.7,138.4,154.5,138.7z M153.4,139.6c-0.2-0.3-0.3-0.3-0.4,0.1C152.9,140.1,153,140.1,153.4,139.6
		c0.5,0.1,0.9,0.2,1.4,0.2c0.4,0,0.8-0.1,1.2-0.1C155.5,138.9,154.7,138.9,153.4,139.6z M156.4,138.8l0.5-0.3l-0.4-0.7l-0.5,0.3
		L156.4,138.8z M151.1,141c0,0.4,0.3,0.5,0.8,0.3s0.7-0.4,0.5-0.8c-0.2,0.1-0.3,0.1-0.5,0.2C151.6,140.7,151.4,140.9,151.1,141z
		 M145.9,144.1c0.4,0.6,0.8,0.8,1.3,0.5c-0.2-0.3-0.4-0.5-0.6-0.4C146.3,144.2,146.1,144.1,145.9,144.1z M143.2,145.6
		c-0.4,0.4-0.3,0.5,0.3,0.2C144.1,145.4,144,145.4,143.2,145.6z M159.3,137.8c0-0.4-0.2-0.5-0.4-0.2c-0.3,0.3-0.4,0.3-0.5,0.2
		C158.3,138.1,158.7,138.2,159.3,137.8z M157.4,138.9c-0.2,0.1-0.4,0.1-0.7,0.1s-0.4,0.1-0.2,0.4c0.2-0.1,0.3-0.1,0.5,0
		s0.4,0,0.6-0.4l0.1,0.2c0.6-0.4,0.9-0.7,0.7-1c-0.3,0.2-0.4,0.3-0.4,0.4s-0.1,0.2-0.4,0.4L157.4,138.9z M154.1,140.8
		c0,0.4,0.1,0.5,0.2,0.4c0.1-0.2,0.3-0.2,0.5-0.2C154.5,140.4,154.2,140.3,154.1,140.8z M159.4,139c0.5-0.3,0.9-0.7,1.4-1.1
		c0.5-0.5,0.4-0.8-0.1-0.9c0,0.7-0.4,1-1,0.9C159,137.8,158.9,138.2,159.4,139z M147.6,144.9c-0.5-0.1-0.5-0.1,0.1,0.1
		C148.2,145.3,148.2,145.2,147.6,144.9z M164.5,135.4c0.4-0.4,0.5-0.5,0.4-0.1C164.9,135.6,164.7,135.7,164.5,135.4z M162.7,137.1
		c-0.8-0.2-1-0.1-0.8,0.3C162.1,137.8,162.4,137.7,162.7,137.1z M144.3,147.9c-0.3,0.6-0.3,0.7,0.1,0.4
		C144.7,148,144.7,147.8,144.3,147.9z M150.3,144.6l0.1,0.2l0.2-0.1l-0.1-0.2L150.3,144.6z M158.2,140.3c0.5,0.1,1.2,0.1,2.2,0
		c1-0.1,1.5-0.5,1.6-1c-0.8,0.5-1.4,0.7-1.9,0.6C159.8,139.9,159.1,140,158.2,140.3z M167.1,137c0.6-0.4,0.9-0.7,0.7-1
		C167.2,136.5,167,136.9,167.1,137z M154.5,143.7l0.3,0.5l0.7-0.4l-0.3-0.5L154.5,143.7z M156.8,142.7c-0.1,0.5-0.1,0.7,0,0.6
		c-0.3,0.2-0.6,0.3-0.9,0.4c-0.3,0.1-0.3,0.2-0.1,0.6c0.5,0.1,1-0.1,1.5-0.7C157.8,143,157.6,142.7,156.8,142.7z M150.1,147
		c0.3,0.5,0.6,0.5,1.1,0.2c0.4-0.4,0.7-0.4,0.9-0.1C151.7,146.5,151,146.4,150.1,147z M149.1,147.9c-0.1-0.2-0.2-0.2-0.4-0.1
		l0.3,0.5C149.1,148.2,149.1,148.1,149.1,147.9z M168.9,136.3c-0.2,0.3-0.1,0.4,0.3,0.2C169.6,136.2,169.5,136.2,168.9,136.3z
		 M162.7,140.3c-0.3,0.2-0.4,0.2-0.3,0C162.5,140.1,162.6,140.1,162.7,140.3z M164.6,139.2c0.3,0.5,0.6,0.6,1,0.6
		c0.4-0.1,0.7-0.2,1.1-0.2l-0.4-0.7c-0.4,0.4-0.7,0.6-0.9,0.4S164.9,139,164.6,139.2z M164.1,139.4c-0.3,0.6-0.2,0.8,0.3,0.5
		C164.8,139.6,164.7,139.5,164.1,139.4z M158.9,142.5c-0.3,0.6-0.2,0.8,0.3,0.5C159.6,142.7,159.5,142.5,158.9,142.5z M158.2,143.5
		c-0.8,0.5-0.9,0.6-0.2,0.4C158.6,143.8,158.7,143.6,158.2,143.5z M150.7,148.5c-0.2-0.3-0.4-0.4-0.5-0.3
		C150.4,148.5,150.5,148.6,150.7,148.5z M174.7,134.8l0.7-0.4c-0.2-0.3-0.4-0.4-0.6-0.3C174.5,134.3,174.5,134.5,174.7,134.8z
		 M162.9,141.7c-0.2-0.3-0.4-0.4-0.5-0.3C162.6,141.7,162.7,141.8,162.9,141.7z M166.8,139.1c0,0.4,0.3,0.5,0.8,0.2
		c0.5-0.3,0.5-0.5,0.2-0.8L166.8,139.1z M155.7,146.2c0.3,0.2,0.6,0.1,0.8-0.3c0.2-0.4,0.1-0.5-0.2-0.4l-0.5,0.3
		c-0.2,0.1-0.3,0.2-0.3,0.3C155.5,146.3,155.5,146.3,155.7,146.2z M163.5,141.7c-0.3,0.6-0.2,0.8,0.2,0.5
		C164,142,164,141.8,163.5,141.7z M153.1,148.1c0.2,0.1,0.3-0.1,0.4-0.6l-0.9,0.6C152.8,147.9,152.9,148,153.1,148.1z M163,142.9
		c-0.7,0-0.7,0-0.1,0.1C163.4,143.1,163.4,143.1,163,142.9z M157.1,146l0.3,0.5l0.5-0.3l-0.3-0.5L157.1,146z M170.7,138.8
		c-0.1-0.2-0.2-0.2-0.4-0.1C170.4,138.8,170.5,138.9,170.7,138.8z M171.4,138.3c0.2,0.3,0.3,0.4,0.4,0.4s0.3,0,0.6,0.3
		C172.2,138.7,171.9,138.5,171.4,138.3z M161.9,143.9c0.2,0.3,0.4,0.4,0.5,0.3l-0.3-0.5L161.9,143.9z M157.9,146.8
		c0.3,0.5,0.7,0.5,1.4,0.2C159.2,146.4,158.7,146.4,157.9,146.8z M178.3,135.6c-0.2,0.1-0.2,0-0.3-0.2
		C178,135.2,178.1,135.2,178.3,135.6z M174.1,138.6l-0.3-0.5c-0.5-0.1-0.6,0-0.4,0.4C173.6,139,173.9,139,174.1,138.6z M170.9,140.2
		c-0.1-0.2-0.2-0.2-0.4-0.1c0.2-0.1,0.2-0.1,0.2,0.1C170.6,140.3,170.7,140.3,170.9,140.2z M161.9,145.5l-0.1-0.2l-0.5,0.3
		c0.3-0.2,0.4-0.2,0.3,0C161.5,145.7,161.6,145.6,161.9,145.5z M174.7,138l-0.5,0.3c0.2,0.1,0.4,0.1,0.6,0L174.7,138z M169.6,141.9
		l-0.4-0.7l-0.7,0.4c0.1,0.2,0.1,0.3,0.1,0.4c0,0.1,0,0.3,0.1,0.4L169.6,141.9c0.2,0.3,0.3,0.4,0.3,0.2
		C169.9,141.9,169.8,141.8,169.6,141.9z M175.2,138.3c0.8,0.2,0.9,0,0.6-0.6C175.3,138,175.1,138.2,175.2,138.3z M181.5,135.6
		c0.2,0.3,0.1,0.4-0.1,0.4s-0.6,0-1.1,0.3c-0.2-0.3-0.1-0.6,0.2-0.8C180.8,135.4,181.1,135.4,181.5,135.6z M162.3,146.2
		c-0.3,0.6-0.2,0.8,0.2,0.5C162.9,146.5,162.8,146.3,162.3,146.2z M177.4,138.3c0.5-0.3,0.8-0.4,1-0.2c0.2,0.1,0.4,0.1,0.7-0.1
		c0-0.4-0.3-0.6-0.9-0.4C177.6,137.6,177.3,137.9,177.4,138.3z M174.6,139.6c-0.1,0.5,0,0.6,0.3,0.3
		C175.3,139.6,175.2,139.5,174.6,139.6z M185.9,133.3c-0.4,0.4-0.3,0.5,0.1,0.2C186.5,133.3,186.4,133.2,185.9,133.3z M172.3,141.6
		l-0.5,0.3c0,0.4,0.2,0.5,0.6,0.3c0.4-0.2,0.5-0.4,0.4-0.6C172.6,141.7,172.4,141.8,172.3,141.6z M170.4,142.7
		c-0.3,0.6-0.2,0.7,0.2,0.4C171.1,142.7,171,142.6,170.4,142.7z M167.4,144.5l-0.7,0.4L167.4,144.5z M187.6,133
		c0,0.4,0.3,0.5,0.8,0.3s0.7-0.5,0.5-0.8C188.6,132.5,188.2,132.6,187.6,133z M181.5,137.8c-0.4-0.6-0.6-0.7-0.6-0.3
		C180.8,138,181,138.1,181.5,137.8z M182.1,137.1c0.3,0.5,0.6,0.6,1.1,0.3c0.1-0.5,0-0.6-0.4-0.4
		C182.4,137.3,182.2,137.3,182.1,137.1z M168.9,145.5c-0.6-0.3-0.7-0.2-0.3,0.3C169,146.3,169.1,146.2,168.9,145.5z M188.7,133.9
		c-0.2,0.3-0.1,0.4,0.3,0.2C189.4,133.8,189.3,133.8,188.7,133.9z M183.9,137c-0.7,0.2-0.8,0.2-0.1-0.1
		C184.5,136.6,184.5,136.7,183.9,137z M179.8,140.4c0.5-0.3,0.3-0.5-0.4-0.7c0.1,0.1,0.1,0.4,0,0.6
		C179.4,140.5,179.5,140.6,179.8,140.4z M186,137.4c0.2,0.1,0.6-0.2,1-0.9C186,136.4,185.6,136.8,186,137.4z M193.3,132.5
		c-0.1,0.5,0,0.6,0.3,0.3C194,132.4,193.9,132.4,193.3,132.5z M191,134.5c-0.2,0.3-0.6,0.4-1.1,0.3c-0.5-0.1-0.7,0.1-0.6,0.6
		c1-0.1,1.8-0.2,2.6-0.2c0.7,0,1.5-0.2,2.4-0.5c-0.2-0.1-0.3-0.4-0.2-0.9c-0.3,0.2-0.6,0.4-0.8,0.5c-0.2,0.1-0.6,0.1-1.1,0
		c-0.2-0.3,0-0.6,0.6-0.8c0.6-0.2,0.7-0.4,0.3-0.3c-0.6,0.4-1.1,0.5-1.4,0.5C191.3,133.7,191.1,134,191,134.5z M191,134.5l0.2-0.1
		c0.1,0.2,0.1,0.3-0.1,0.4L191,134.5z M182.8,140.5c-0.4-0.6-0.5-0.7-0.5-0.3C182.3,140.6,182.5,140.7,182.8,140.5
		c0,0.4,0.1,0.5,0.3,0.2C183.2,140.4,183.1,140.4,182.8,140.5z M197.6,131.2c0.1-0.1,0.2,0,0.3,0.2
		C197.9,131.6,197.8,131.5,197.6,131.2z M190,136.6c-0.1-0.2-0.2-0.2-0.4-0.1c0.2-0.1,0.2-0.1,0.2,0.1
		C189.8,136.7,189.9,136.7,190,136.6z M178.3,143.2c-0.5,0.5-0.5,0.6,0,0.3C178.9,143.1,178.9,143,178.3,143.2z M195,133.7l0.1,0.2
		c0.3-0.2,0.4-0.4,0.3-0.5l-0.9,0.6L195,133.7z M188.1,137.7c-0.4,0.4-0.4,0.5,0,0.3C188.5,137.8,188.5,137.7,188.1,137.7z
		 M178.9,143.1c-0.2,0.3-0.1,0.4,0.3,0.2C179.6,143.1,179.5,143,178.9,143.1z M184.5,140.2c-0.5-0.1-0.5-0.1,0.1,0.1
		C185.1,140.5,185.1,140.5,184.5,140.2z M191.9,136.5c-0.3-0.5-0.4-0.5-0.4-0.2C191.4,136.6,191.5,136.7,191.9,136.5
		c0.2,0.3,0.4,0.4,0.8,0.2c0.3-0.2,0.5-0.5,0.4-0.9c-0.5-0.1-0.7-0.1-0.7,0.1S192.2,136.3,191.9,136.5z M194.4,134.4
		c0.6,0.7,1.2,0.8,1.9,0.2c0.6-0.6,0.8-1,0.6-1.3c-0.7,0-1,0.2-1.1,0.8C195.7,134.6,195.2,134.7,194.4,134.4z M199.9,132.4l0.2-0.1
		c0.3-0.2,0.4-0.4,0.2-0.8C199.9,131.8,199.7,132.1,199.9,132.4z M188.8,138.9c-0.7,0-0.9,0.1-0.6,0.4
		C188.5,139.5,188.7,139.4,188.8,138.9z M187.2,140c-0.2,0.4,0.1,0.4,0.7,0.1C187.6,139.6,187.4,139.6,187.2,140z M196.6,134.4
		c0.8,0.4,1.7,0.2,2.7-0.3c-0.2-0.3-0.5-0.4-1.1-0.2C197.7,134.1,197.2,134.2,196.6,134.4z M195.1,136.2c-0.2-0.3-0.4-0.4-0.5-0.3
		C194.8,136.1,195,136.3,195.1,136.2z M182.8,143.7c-0.2-0.1-0.5,0-0.9,0.2c-0.1,0.5-0.1,0.6,0.1,0.4
		C182.2,144.1,182.4,143.9,182.8,143.7l0.3,0.5c0.1,0.1,0.4,0.2,0.8,0c0.4-0.1,0.6-0.4,0.4-0.7c-0.2,0.3-0.4,0.4-0.7,0.2
		C183.3,143.6,183.1,143.5,182.8,143.7z M199.8,133.8l0.4,0.7c0.1,0.2,0.2,0.2,0.4,0.1c-0.1-0.2,0.1-0.4,0.6-0.6
		C200.9,133.4,200.4,133.4,199.8,133.8z M190.5,140.1c0.5-0.3,0.9-0.4,1.5-0.2c-0.2-0.3-0.5-0.5-1.1-0.5
		C190.4,139.4,190.2,139.7,190.5,140.1z M189.2,141.2c0.3-0.2,0.6-0.2,0.9-0.2l-0.3-0.5C189,140.4,188.9,140.6,189.2,141.2z
		 M202.9,132.6c0.2,0.3,0.4,0.4,0.6,0.3c0.2-0.1,0.5-0.2,0.7-0.1l-0.3-0.5C203.5,132.6,203.1,132.6,202.9,132.6z M180,146
		c-0.5,0.5-0.5,0.6,0,0.3C180.5,146,180.5,145.9,180,146z M198.9,135.7c0.3-0.1,0.2-0.2-0.1-0.4c-0.5,0.3-0.6,0.6-0.4,0.9
		C198.4,135.9,198.6,135.8,198.9,135.7z M181.2,145.9c-0.4,0-0.6,0.1-0.5,0.2C180.7,146.1,180.9,146.1,181.2,145.9
		c0.1,0.2,0.3,0.1,0.6,0l-0.1-0.2C181.4,145.6,181.2,145.7,181.2,145.9z M201.9,134.1c0.2-0.1,0.3-0.1,0.5-0.2
		c0.2,0,0.5-0.1,0.8-0.3l-0.3-0.5c-0.2,0.3-0.5,0.5-0.7,0.4C202,133.6,201.9,133.7,201.9,134.1z M196.4,137c-0.1,0.3,0,0.3,0.5,0
		C196.7,136.7,196.6,136.7,196.4,137z M199.8,135.4c0.1,0.2,0.3,0.2,0.6,0.1c0.3-0.1,0.3-0.2,0.1-0.6c-0.2,0.3-0.4,0.4-0.7,0.2
		C199.6,135,199.6,135.1,199.8,135.4z M193,139.6c-0.2-0.3-0.1-0.4,0.4-0.2c0.4,0.2,0.7,0,0.8-0.5l-0.3-0.5
		c-0.2,0.3-0.6,0.6-1.1,0.8C192.3,139.4,192.4,139.6,193,139.6z M184.7,143.8c0,0.4,0.3,0.5,0.8,0.2c0.5-0.3,0.5-0.5,0.2-0.8
		L184.7,143.8z M209.3,131.1c-0.1-0.2-0.3-0.1-0.6,0c-0.3,0.2-0.4-0.1-0.4-0.7C208.7,130.1,209.1,130.3,209.3,131.1z M182.7,145.3
		l0.4,0.7l0.2-0.1l-0.4-0.7L182.7,145.3z M203.4,133.5c0.7,0.4,1.7,0.5,3.1,0.2s1.9-0.8,1.4-1.6c-0.6,0.8-1.3,1.2-2,1.2
		C205.3,133.3,204.4,133.4,203.4,133.5z M196.6,138c-0.1-0.2-0.3-0.3-0.4-0.2l0.4,0.7C196.7,138.4,196.7,138.3,196.6,138z
		 M196.3,139.3c0.6-0.4,0.9-0.6,0.8-0.8c-0.2,0.3-0.4,0.5-0.6,0.4C196.4,138.7,196.3,138.9,196.3,139.3z M209.1,131.8l0.4,0.7
		l0.5-0.3l-0.4-0.7L209.1,131.8z M199.2,137.6c-0.4,0.4-0.4,0.5,0,0.3C199.6,137.7,199.6,137.6,199.2,137.6z M208.1,133.4
		c-0.1,0.5,0.1,0.6,0.6,0.4s0.7-0.5,0.5-0.8c-0.2,0.1-0.4,0-0.6-0.1C208.4,132.7,208.2,132.9,208.1,133.4z M206.4,135.1
		c0.4-0.1,0.6-0.4,0.4-0.7c-0.3,0.2-0.8,0.3-1.3,0.5c-0.6,0.1-0.6,0.3,0,0.6C205.7,135.4,206,135.3,206.4,135.1z M198.4,139
		c-0.4,0.4-0.4,0.5,0,0.3C198.8,139.1,198.8,139,198.4,139z M201.1,137.7c-0.1,0.5,0,0.6,0.4,0.4
		C201.9,137.9,201.8,137.8,201.1,137.7z M211,132.9l-0.1-0.2c-0.2,0.1-0.3,0.1-0.4-0.1l-0.2,0.1C210.3,133.1,210.5,133.2,211,132.9
		l0.3,0.5l0.7-0.4C211.8,132.6,211.5,132.6,211,132.9z M212.9,131.8c0.3-0.2,0.5-0.1,0.6,0.1s0.2,0.2,0.4-0.1
		c-0.2-0.3-0.4-0.5-0.6-0.6C213,131.2,212.9,131.4,212.9,131.8z M194.3,142.4c-0.3,0.6-0.3,0.7,0.1,0.4
		C194.8,142.5,194.7,142.3,194.3,142.4z M202.2,139c0.3-0.2,0.6-0.3,1-0.4s0.4-0.3,0.3-0.6c-0.3-0.2-0.6-0.2-0.9,0.2
		C202.4,138.5,202.3,138.8,202.2,139z M209.6,134.4c-0.2-0.1-0.5-0.1-0.6,0c-0.2,0.1-0.2,0.2-0.1,0.4
		C209.7,135,209.9,134.8,209.6,134.4z M192.9,144.6c0.2,0.2,0.4,0,0.5-0.5c-0.7,0-1,0.1-0.9,0.6
		C192.6,144.4,192.7,144.4,192.9,144.6z M212.1,133.2c0.4,0,0.6-0.2,0.6-0.6L212,133L212.1,133.2z M213.6,133
		c0.2-0.3,0.4-0.4,0.5-0.3c0.1,0.2,0.3,0.1,0.6,0c-0.1-0.2-0.1-0.3,0-0.5s0-0.2-0.4-0.2c0.2,0.3,0,0.5-0.6,0.6
		C213.1,132.7,213.1,132.9,213.6,133z M201,140.7c-0.9,0.3-1,0.3-0.4,0.1C201.1,140.5,201.3,140.5,201,140.7z M216.3,132.7l-0.4-0.7
		c-0.5,0.3-0.8,0.7-0.9,1.2C215.4,133.1,215.8,133,216.3,132.7l0.1,0.2c0.2-0.1,0.4-0.1,0.7-0.1s0.5-0.2,0.4-0.6
		C217.3,132.2,216.9,132.3,216.3,132.7z M212.8,134.4c-0.2,0.1-0.2,0-0.3-0.2c0-0.2-0.1-0.3-0.3-0.2l0.1,0.2
		C212.5,134.4,212.7,134.5,212.8,134.4z M206,138.4c0.2-0.1,0.3-0.1,0.4,0.1c0.5-0.3,0.6-0.6,0.3-1.1c-0.1,0.5-0.3,0.7-0.4,0.6
		C206,137.8,205.9,138,206,138.4z M198.6,142.1c-0.3,0.6-0.2,0.8,0.3,0.5C199.4,142.3,199.3,142.1,198.6,142.1z M195.5,143.9
		c0.2,0.3,0.3,0.4,0.3,0.2C195.8,143.8,195.7,143.8,195.5,143.9z M226.4,131.5c-0.7,0-1.4,0.1-2.1,0.3c-0.7,0.2-1.5,0.3-2.3,0.4
		c0.2-0.3,0.2-0.5,0-0.5c-0.2,0-0.4,0.1-0.5,0.2c-0.5-0.1-1-0.2-1.6-0.2s-0.9,0-1,0.1c-0.1-0.2,0-0.2,0.2-0.3c0.2,0,0.3-0.1,0.4-0.4
		l0.6,0l0.2-0.1l-0.1-0.2c-0.2-0.1-0.5,0.1-0.7,0.4l-0.1-0.2c-0.6-0.3-0.9-0.1-1,0.4c-0.1,0.6-0.2,1-0.5,1.4
		c0.8-0.5,1.4-0.6,1.9-0.3c0.5,0.2,0.9,0.2,1.4,0c0.1,0.2,0.2,0,0.3-0.5c0.2,0.3,0.4,0.4,0.5,0.3c0.7,0,1.4,0.1,2.3,0.2
		C225.2,132.5,225.9,132.2,226.4,131.5c0.5,0.5,1.1,0.6,1.6,0.3c0.6-0.3,1.1-0.5,1.8-0.4c-1-0.3-1.6-0.2-1.8,0.1
		c-0.4,0-0.8-0.2-1-0.7c-0.3,0.2-0.4,0.3-0.4,0.4C226.6,131.4,226.5,131.4,226.4,131.5z M197.1,143.9c0.2,0.3,0.6,0.3,1.2-0.1
		c-0.2-0.3-0.4-0.4-0.6-0.1C197.6,143.9,197.4,143.9,197.1,143.9z M222.2,129.8c0.1,0.6,0.6,0.6,1.4,0.2c-0.3-0.5-0.6-0.6-0.8-0.3
		C222.5,129.9,222.3,130,222.2,129.8z M201.6,143.5c-0.2-0.1-0.6-0.1-1.1,0c-0.5,0.1-0.6,0.3-0.4,0.6c0.2-0.1,0.4-0.2,0.7-0.2
		C201,143.8,201.3,143.6,201.6,143.5c0.3,0.2,0.5,0.2,0.4,0.1C201.9,143.4,201.8,143.4,201.6,143.5z M205.9,140.4l0.3,0.5
		c0.3-0.2,0.5-0.2,0.5-0.2c0.1,0.1,0.2-0.1,0.4-0.4l-0.3-0.5L205.9,140.4z M222.4,131.3c-0.1-0.2-0.2-0.2-0.4-0.1
		C222.1,131.4,222.3,131.4,222.4,131.3z M218.4,133.6c0.3,0.2,0.5,0.2,0.4,0.1C218.7,133.6,218.6,133.6,218.4,133.6z M204.7,141.7
		l0.3,0.5l0.7-0.4l-0.3-0.5L204.7,141.7z M226.6,129.2c-0.1,0.9,0.2,1.1,1,0.7c-0.1-0.6-0.3-0.8-0.5-0.6
		C226.8,129.4,226.7,129.3,226.6,129.2z M225,131.4l0.7-0.4c0.1-0.5-0.1-0.7-0.6-0.6C224.5,130.5,224.5,130.8,225,131.4z M221.1,134
		c-0.1-0.2-0.2-0.2-0.4-0.1C220.9,134,221,134.1,221.1,134z M208,141.3c0.3,0.2,0.5,0.2,0.4,0.1C208.3,141.3,208.2,141.2,208,141.3z
		 M206,142.8c0.2,0.3,0.3,0.4,0.4,0.4c0.1-0.1,0.3,0,0.6,0.3C206.9,143.2,206.5,142.9,206,142.8z M227.4,130.6
		c-0.1,0.5,0,0.6,0.5,0.3s0.5-0.5,0.2-0.8L227.4,130.6z M219.3,136.3l-0.1-0.2c-0.1-0.2-0.3-0.1-0.6,0l0.1,0.2
		C219,136.4,219.2,136.4,219.3,136.3z M218.1,137c-0.2,0.1-0.2,0-0.3-0.2C217.9,136.6,218,136.7,218.1,137z M224.6,133.9
		c0.2-0.1,0.5-0.1,1-0.1s0.5-0.3,0-0.8c-0.2-0.1-0.5,0-0.9,0.2C224.4,133.3,224.4,133.5,224.6,133.9z M223.8,133.7
		c-0.4,0.4-0.4,0.6,0.1,0.4S224.3,133.8,223.8,133.7z M209,143l0.1,0.2c0.1-0.1,0.4-0.1,0.7-0.1s0.4-0.1,0.2-0.4
		c-0.2,0.1-0.3,0.1-0.4,0.1C209.5,142.7,209.3,142.8,209,143z M232.1,131c0.5-0.3,0.7-0.7,0.8-1.4c-0.1,0.5-0.3,0.8-0.6,0.8
		C232,130.5,231.9,130.7,232.1,131z M226.3,133.5l0.3,0.5l0.7-0.4l-0.3-0.5L226.3,133.5z M236.7,131.2l-0.1-0.2
		c-0.5-0.1-1.1-0.1-1.8,0.1c-0.7,0.2-1.4,0.2-2-0.1c-0.1-0.2-0.2,0-0.3,0.5c-0.2-0.1-0.5-0.3-0.6-0.6c-0.4,0.4-0.7,0.6-1,0.4
		c-0.3-0.1-0.4,0-0.4,0.4c0.4,0,0.7-0.1,0.9-0.1c0.2,0,0.6-0.1,1.1-0.2c0.6,0.3,1.4,0.4,2.3,0.2
		C235.7,131.6,236.3,131.4,236.7,131.2c0.2,0.3,0.3,0.3,0.4-0.1C237.2,130.8,237,130.8,236.7,131.2z M226,134.6l0.3,0.5l0.5-0.3
		l-0.3-0.5L226,134.6z M226.8,134.4c-0.2,0.3-0.1,0.4,0.3,0.2C227.5,134.4,227.4,134.3,226.8,134.4z M229.4,133.5
		c0.8-0.5,1.1-0.8,1-0.9C230,132.5,229.6,132.8,229.4,133.5z M235.7,129.6c-0.1,0.5,0,0.6,0.4,0.4
		C236.5,129.7,236.4,129.6,235.7,129.6z M230.6,132.8c0.1,0.8,0.3,1,0.7,0.7c0.4-0.4,0.8-0.7,1-1.1c-0.2,0.3-0.5,0.4-0.8,0.3
		C231.2,132.6,230.9,132.7,230.6,132.8z M227.9,135.7c-0.2-0.3-0.4-0.4-0.5-0.3C227.6,135.7,227.7,135.8,227.9,135.7z M233.2,132.9
		c-0.4,0.4-0.3,0.5,0.3,0.2C234,132.8,233.9,132.7,233.2,132.9z M230,135.1c-0.3,0.6-0.2,0.8,0.3,0.5
		C230.8,135.3,230.7,135.1,230,135.1z M241.5,130.9c-0.2-0.3-0.3-0.4-0.3-0.2c0,0.2-0.1,0.4-0.2,0.4c-0.2-0.3-0.3-0.5-0.2-0.7
		s0-0.3-0.1-0.4c-0.3,1-0.8,1.2-1.5,0.7c-0.7-0.5-1.1-0.4-1,0.4c0.6-0.1,1.2-0.1,1.9,0.2C240.8,131.7,241.3,131.5,241.5,130.9
		c0.7,0.4,1.3,0.5,2,0.1c0.1-0.2,0.2-0.5,0.4-0.7s0-0.4-0.5-0.5C243.1,130.4,242.5,130.8,241.5,130.9z M243,129.1
		c-0.5-0.1-0.7-0.2-0.5-0.3C242.7,129.1,242.9,129.2,243,129.1z M231,136.1c-0.2-0.3-0.4-0.4-0.5-0.3
		C230.9,135.9,231.1,136,231,136.1z M223.6,139.8c0.2,0.3,0.3,0.4,0.3,0.2C223.9,139.8,223.8,139.7,223.6,139.8z M232.3,135.4
		c0.4-0.2,0.4-0.3,0-0.3C231.9,135.5,231.9,135.6,232.3,135.4z M226.9,138.5c0,0.4,0.2,0.5,0.6,0.3s0.3-0.4-0.2-0.5L226.9,138.5z
		 M223.6,141.4l0.3,0.5C224.5,141.5,224.4,141.4,223.6,141.4z M233.4,136c-0.2,0.3-0.1,0.4,0.4,0.1S234.1,135.8,233.4,136z
		 M240.7,132.7c-0.2-0.3-0.4-0.4-0.5-0.3C240.4,132.6,240.5,132.8,240.7,132.7z M247.2,130.8c-0.3-0.5-0.7-0.3-1.3,0.5
		c-0.9-0.5-1.6-0.8-2-0.7c0.3,0.5,0.6,0.7,0.9,0.7s0.7,0,1.1,0C246.4,131.8,246.8,131.6,247.2,130.8c0.3,0.5,0.7,0.7,1.3,0.6
		c0.6,0,1-0.3,1.1-0.8L247.2,130.8z M248.9,128.6c-0.1,0.4,0.1,0.4,0.6,0.1C249.2,128.3,249,128.3,248.9,128.6z M247.1,130.2
		c-0.2-0.3-0.4-0.4-0.5-0.3C247.1,130,247.3,130.1,247.1,130.2z M245.2,132.9c-0.1-0.2-0.1-0.3,0-0.5s0.1-0.4-0.1-0.7
		c-0.4,0-0.5,0.3-0.4,0.7C244.9,132.8,245.1,133,245.2,132.9z M232.4,139.1c0.2,0.3,0.5,0.5,1,0.7
		C233.1,139.1,232.7,138.9,232.4,139.1z M247,132.4c0.4-0.2,0.3-0.3-0.3-0.2C246.6,132.6,246.6,132.7,247,132.4z M251.7,131
		l-0.1-0.2l-0.5-0.3C251.4,131,251.7,131.2,251.7,131z M236.9,139.3c-0.2,0.1-0.2,0-0.3-0.2C236.7,138.9,236.8,139,236.9,139.3z
		 M254,130.6l-0.1-0.2c-0.3,0.2-0.5,0.2-0.6,0l-0.2,0.1C253.1,130.9,253.4,130.9,254,130.6c0.3,0.5,0.5,0.5,0.6,0.1
		C254.7,130.3,254.5,130.3,254,130.6z M255.3,129.5c-0.4,0.4-0.4,0.5,0,0.3C255.7,129.6,255.7,129.5,255.3,129.5z M239.2,138.9
		c0.4,0.6,0.7,0.9,1,0.7c0.2-0.3,0.2-0.6-0.1-0.7C239.9,138.7,239.6,138.7,239.2,138.9z M255.5,131l0.1,0.2c0.2-0.3,0.6-0.4,1.1-0.3
		l-0.4-0.7c-0.2,0.1-0.3,0.2-0.3,0.3C256,130.6,255.9,130.8,255.5,131z M242.3,138.7c0.2,0.3,0.3,0.4,0.4,0.4c0.1-0.1,0.3,0,0.6,0.3
		C243,138.7,242.6,138.5,242.3,138.7z M258.2,130.1l0.5-0.3l-0.1-0.2l-0.5,0.3L258.2,130.1z M252.5,134l-0.1-0.2l-0.4-0.1
		c0.2-0.1,0.2,0,0.3,0.2C252.3,134,252.4,134.1,252.5,134z M260.5,129.6c-0.2,0.3-0.1,0.4,0.3,0.2
		C261.1,129.6,261,129.5,260.5,129.6z M258.8,130.6c-0.2,0.3-0.1,0.4,0.3,0.2C259.5,130.6,259.4,130.5,258.8,130.6z M251.6,135.1
		c0.1,0.2,0.1,0.3-0.1,0.4c0.2-0.1,0.3-0.1,0.3,0s0.1,0.1,0.3,0l0.1-0.4c-0.2,0.1-0.3,0.1-0.3,0C251.9,135,251.8,135.1,251.6,135.1z
		 M261.1,131.2c0.3-0.2,0.8-0.2,1.3-0.1c0.6,0.1,0.9-0.2,0.9-0.9c-0.6,0.1-1.1,0.2-1.6,0.2C261.2,130.4,261,130.6,261.1,131.2z
		 M248.7,138.8c0,0.4,0.3,0.5,0.7,0.4s0.6-0.4,0.6-0.8c-0.2,0.3-0.4,0.4-0.7,0.2C249.1,138.4,248.9,138.4,248.7,138.8z M263.8,131.2
		c0.4-0.2,0.7-0.3,1-0.2c-0.2-0.3-0.8-0.4-1.7-0.2C263.1,131.3,263.4,131.4,263.8,131.2z M262.9,132.1l0.3,0.5
		C263.4,132.4,263.3,132.2,262.9,132.1z M252.3,138.9c0.2-0.1,0.3-0.1,0.4,0.1c0.5-0.3,0.6-0.6,0.4-0.9
		C252.4,138.5,252.2,138.7,252.3,138.9z M269.3,129.6c-0.1-0.2-0.2-0.2-0.4-0.1l0.3,0.5C269.4,129.8,269.4,129.7,269.3,129.6z
		 M267.3,130.4l-0.5,0.3c-0.1,0.5,0,0.7,0.5,0.5s0.6-0.3,0.5-0.5l-0.4-0.1L267.3,130.4z M258.6,136.2c-0.2,0.1-0.2,0-0.3-0.2
		C258.3,135.8,258.4,135.8,258.6,136.2z M268.5,131l0.3,0.5c0.2-0.1,0.3-0.1,0.5,0c0.2,0.1,0.3-0.1,0.5-0.6l-0.3-0.5L268.5,131z
		 M274.7,131.2c0.2,0.3,0.3,0.4,0.4,0.1C275.1,131,275,131,274.7,131.2z M281.5,128.8c-0.3,0.2-0.4,0.1-0.4-0.1
		C281.2,128.4,281.3,128.4,281.5,128.8z M281.5,128.8l0.7-0.4C282.3,128.8,282,128.9,281.5,128.8z M272.4,135.1
		c-0.1,0.1,0,0.2,0.2,0.5l0.2-0.1l0-0.6l-0.4-0.1C272.4,134.9,272.5,135,272.4,135.1z M282.6,129.1c0.8-0.1,1,0.1,0.5,0.3
		C282.7,129.7,282.5,129.6,282.6,129.1z"/>
</g>
</svg>
